<svg xmlns="http://www.w3.org/2000/svg" height="1024" preserveAspectRatio="none" style="display: block;" version="1.1" viewBox="0 0 2048 2048" width="1024">
<path d="M 1414.75 480.579 C 1389.88 444.909 1367.73 415.659 1332.73 389.074 C 1322.98 381.669 1301.85 372.259 1295.57 366.022 C 1293.71 359.72 1297.22 354.862 1302.95 352.401 C 1427.3 298.944 1588.34 412.626 1621.76 533.411 C 1642.78 609.365 1629.76 695.246 1553.56 734.574 C 1558.7 766.582 1551.09 796.065 1523.15 815.61 C 1510.94 824.151 1497.17 828.623 1482.15 828.062 C 1476.22 870.063 1439.3 880.267 1406.2 900.249 C 1419.33 923.816 1424.35 939.691 1429.17 965.494 C 1432.47 964.961 1435.77 964.531 1439.09 964.205 C 1459.63 962.16 1500.86 965.042 1518.36 978.53 C 1523.88 982.787 1524.74 988.222 1525.25 994.744 C 1581.87 1024.34 1597.95 1090.08 1594.68 1149.79 C 1593.77 1166.43 1579.51 1245.46 1557.51 1242.25 C 1555.69 1240.56 1554.01 1238.67 1554.1 1235.94 C 1555.36 1196.65 1546.78 1163.19 1539.61 1125.12 C 1531.81 1123.75 1527.55 1123.36 1520.9 1118.38 C 1505.2 1106.62 1494.26 1067.27 1491.81 1048.95 C 1466.57 1059.32 1441.93 1053.83 1415 1050.72 C 1411.52 1058.64 1408.1 1066.58 1404.76 1074.56 C 1421.93 1082.21 1451.85 1091.02 1463.71 1105.5 C 1469.42 1112.48 1468.79 1119.46 1467.72 1127.67 C 1538.9 1174.16 1512.05 1286.64 1468.61 1342.4 C 1459.41 1354.22 1437.53 1384.79 1423.02 1388.84 C 1418.7 1388.13 1420.47 1389.02 1417.33 1386.45 C 1416.4 1379.33 1425.31 1351.8 1427.46 1343.43 C 1434.9 1314.59 1441.44 1286.82 1445.47 1257.25 C 1416.08 1240.09 1424.05 1206.73 1426.99 1177.65 C 1390.2 1180.92 1378.64 1168.52 1345.51 1154.01 C 1338.94 1160.94 1330.73 1167.12 1324.58 1174.35 L 1324.95 1176.81 C 1322.64 1178.4 1320.34 1179.34 1317.51 1179.43 C 1320.05 1181.33 1322.86 1183.2 1325.49 1185.09 C 1327.19 1182.45 1326.81 1180.85 1329.06 1179.31 C 1337.63 1184.35 1354.88 1196.5 1362 1203.05 C 1371.33 1211.65 1371.24 1219.6 1371.12 1230.9 C 1389.44 1243.7 1389.91 1264.96 1389.19 1285.01 C 1386.9 1347.85 1350.98 1398.73 1306.73 1439.88 C 1340.39 1441.1 1376.78 1439.24 1410.63 1439.97 C 1419.8 1440.17 1442.95 1438.69 1450.38 1440.68 C 1453.68 1444.76 1453.85 1510.07 1450.94 1515.38 C 1444.71 1518.69 1430.39 1517.62 1422.81 1517.51 C 1420.74 1581.49 1422.61 1654.59 1422.56 1719.47 L 1422.5 1766.15 C 1422.49 1774.39 1422.85 1787.94 1421.49 1795.56 C 1413.02 1798.26 1362.26 1797.26 1350.48 1797.25 L 1223.01 1797.09 C 1120.22 1797.79 1017.41 1797.82 914.615 1797.19 C 872.259 1797.09 828.129 1798.28 785.984 1797.08 C 676.645 1875.26 557.92 1754.69 633.051 1643.03 L 632.977 1517.45 C 627.026 1517.02 603.186 1519.8 603.641 1512 C 604.348 1499.85 601.045 1450.08 604.633 1441.49 C 616.651 1437.66 726.886 1440 746.648 1439.97 C 701.272 1401.31 666.921 1348.13 663.009 1286.93 C 661.461 1262.7 666.014 1246.51 682.523 1228.51 C 678.154 1211.2 689.461 1203.93 701.931 1194.03 C 711.918 1186.11 722.273 1178.97 731.65 1170.27 C 724.869 1163.81 717.765 1156.65 710.279 1151.13 C 681.481 1163.59 656.519 1185.45 625.243 1175.85 C 627.03 1193.8 631.707 1222.46 624.911 1239.04 C 621.189 1248.12 615.225 1251.65 606.604 1255.07 C 609.109 1285.24 618.545 1316.32 625.605 1345.7 C 628.015 1355.72 639.878 1381.22 633.181 1388.66 C 623.91 1390.39 611.257 1376.03 605.523 1369.55 C 559.072 1317 523.655 1244.08 547.847 1173.5 C 554.201 1154.96 567.138 1135.69 585.246 1127.03 C 583.667 1104.36 589.842 1099.11 610.601 1089.6 C 623.672 1083.61 637.243 1079 650.265 1072.81 C 647.863 1066.8 643.434 1058.32 640.511 1052.33 C 616.001 1055.02 581.355 1060.06 560.323 1047.38 C 557.12 1062.49 552.932 1077.91 547.43 1092.35 C 540.96 1109.32 533.908 1123.67 513.737 1124.23 C 508.044 1145.88 503.178 1169.85 500.722 1192.09 C 498.719 1210.24 499.935 1222.7 495.554 1240.81 C 493.498 1242.85 494.703 1242.07 491.535 1242.56 C 485.259 1240.43 481.946 1234.85 478.895 1229.22 C 440.645 1158.7 449.358 1037.35 526.167 995.267 C 529.182 973.995 547.75 970.368 565.759 966.808 C 585.557 962.893 604.526 961.919 624.512 964.685 C 626.959 955.668 628.38 945.896 630.985 936.651 C 634.905 922.741 640.464 911.859 646.937 899.153 C 619.78 882.01 569.969 867.196 570.785 829.495 C 566.104 828.923 561.451 828.147 556.838 827.169 C 514.193 817.678 491.379 777.466 500.964 735.465 C 398.595 686.579 407.079 547.386 463.06 466.108 C 520.79 382.292 638.511 312.854 741.494 348.509 C 753.82 352.776 772.094 361.365 751.539 372.294 C 702.621 394.931 671.368 437.7 640.282 479.828 C 640.381 487.45 640.486 492.695 638.634 501.359 C 635.027 518.591 618.764 536.261 640.008 549.114 C 648.254 553.954 657.72 545.119 662.729 539.186 C 676.235 523.191 691.314 510.515 706.93 496.396 C 724.032 480.935 733.229 462.292 737.71 439.793 C 738.866 433.989 740.286 424.791 742.464 419.597 C 746.168 416.871 744.21 417.45 748.32 417.18 C 752.96 419.36 755.676 423.391 757.58 428.088 C 809.641 556.508 710.926 680.358 600.214 731.91 C 602.562 733.691 604.837 735.566 607.035 737.531 C 620.246 749.436 626.229 761.27 627.143 779.107 C 631.837 778.493 639.666 777.396 644.094 778.035 C 667.034 781.346 687.356 805.365 706.959 818.207 L 708.024 818.89 C 711.144 816.463 714.231 813.995 717.287 811.487 C 717.603 806.5 718.179 801.534 719.015 796.608 C 729.778 729.724 776.432 675.724 829.778 637.322 C 833.301 626.37 836.244 619.335 840.907 608.858 C 819.207 592.267 806.805 570.593 810.34 542.659 C 812.585 524.921 821.861 507.827 836.03 496.823 C 851.138 485.114 870.336 480.004 889.266 482.654 C 920.157 486.977 946.339 514.479 947.504 545.946 C 947.787 553.583 946.609 560.894 945.479 568.428 C 960.683 567.247 975.711 565.36 991.008 564.483 C 1031.05 562.185 1066.1 564.023 1105.72 568.326 C 1101.28 540.425 1104.42 517.483 1127.47 498.308 C 1156.85 473.641 1203.67 477.964 1226.78 509.198 C 1252.18 543.51 1242.52 582.758 1210.45 607.675 C 1214.52 617.564 1219.07 627.755 1221.73 638.052 C 1275.21 667.392 1332.16 747.815 1333.97 809.499 C 1337.3 812.828 1340.08 815.974 1343.18 819.489 C 1360.11 808.677 1374.54 791.896 1392.95 782.869 C 1405.06 776.932 1413.62 778.079 1426.26 779.56 C 1428.53 753.73 1433.63 748.938 1451.63 732.269 C 1405.2 710.329 1355.84 672.495 1327.22 629.998 C 1295.45 582.818 1271.92 522.144 1283.94 464.796 C 1286.1 454.515 1292.94 425.789 1302.62 418.76 C 1305.03 417.014 1307.28 417.563 1309.92 418.138 C 1314.87 421.861 1315.46 440.091 1317.67 446.94 C 1323.37 465.722 1330.65 481.888 1344.96 495.47 C 1360.38 510.107 1378.49 521.211 1390.04 539.185 C 1392.75 542.437 1395.45 546.701 1399.67 547.932 C 1419.97 553.85 1422.83 542.996 1426.88 526.851 C 1416.46 508.92 1412.25 502.436 1414.75 480.579 z M 822.029 752.139 C 803.069 761.033 771.988 779.228 755.066 791.718 C 752.684 789.387 751.812 787.582 749.087 785.646 L 746.847 787.844 C 745.948 791.602 744.502 794.352 747.984 796.797 C 724.397 815.295 708.85 828.926 689.117 851.494 C 683.217 851.552 682.765 851.431 677.225 853.709 C 671.7 860.554 666.453 867.619 661.497 874.888 C 664.894 877.69 663.848 874.063 666.925 873.312 C 668.475 874.273 666.866 876.029 668.458 878.518 C 654.373 900.414 633.042 937.929 633.828 963.928 C 634.826 996.944 677.349 1048.83 700.417 1072.26 C 767.297 1140.18 862.328 1178.89 955.468 1192.56 C 982.426 1196.52 1011.68 1197.2 1038.85 1197.3 C 1042.34 1190.86 1055.35 1173.06 1060.25 1165.92 C 1069.46 1152.51 1081.76 1132.44 1092 1120.44 C 1090.62 1119.06 1089.26 1117.65 1087.92 1116.22 C 1085.84 1113.97 1083.09 1110.59 1083.75 1107.54 C 1085.55 1099.21 1101.37 1077.07 1107.39 1073.05 C 1109.02 1073.06 1111.61 1073.26 1113.09 1072.51 C 1115.23 1071.44 1166.42 997.355 1169.6 990.402 C 1168.78 988.804 1166.79 985.598 1167.45 983.879 C 1169.97 977.186 1174.96 970.346 1178.71 964.555 C 1191.91 944.272 1196.89 941.803 1216.38 957.528 C 1229.16 967.858 1242.69 975.641 1255.9 985.436 C 1270.13 995.993 1251 1015.19 1244.29 1024.82 C 1240.21 1030.67 1237.72 1032.23 1230.69 1033.4 C 1217.14 1052.76 1203.07 1071.88 1190.32 1091.75 C 1187.13 1096.72 1178.96 1108.49 1176.97 1113.54 C 1177.36 1115.11 1178.94 1120.96 1178.33 1122.39 C 1174.15 1132.15 1164.91 1148.8 1156.35 1154.95 C 1152.49 1157.71 1145.95 1155.63 1142.22 1154.65 C 1133.07 1166.46 1124.63 1178.82 1116.98 1191.66 C 1141.03 1189.36 1174.27 1180.06 1196.85 1171.99 C 1278.35 1142.88 1366.9 1086.64 1404.37 1005.99 C 1417.09 978.601 1424.72 965.712 1413.95 936.783 C 1380.08 845.873 1303.6 785.999 1219.04 745.764 C 1212.42 742.399 1198.16 735.249 1191.03 733.726 C 1071.57 689.439 976.118 684.75 856.869 735.485 C 851.715 737.146 831.628 746.721 827.635 749.475 L 825.842 750.28 C 824.52 750.849 823.281 751.429 822.029 752.139 z M 1421.56 483.436 C 1421.6 488.857 1421.51 494.065 1422.66 499.368 C 1425.37 511.857 1434.64 521.342 1432.79 534.63 C 1432.21 538.777 1429.37 545.375 1427.75 549.417 L 1428.32 550.58 C 1439.57 573.071 1469.33 572.281 1472.33 599.006 C 1472.98 604.785 1475.06 610.554 1469.11 613.854 L 1466.42 613.569 C 1461.94 607.702 1468.25 596.944 1460.48 588.503 C 1445.67 572.392 1433.9 574.862 1421.55 554.962 C 1409.05 559.085 1401.4 557.762 1390.41 551.206 C 1372.41 578.271 1349.39 606.003 1343.86 639.108 C 1356.98 655.424 1376.87 675.01 1393.48 687.67 C 1432.36 715.815 1474.86 741.975 1524.9 734.178 C 1555.93 729.343 1578.95 713.024 1597.24 687.688 C 1623.69 651.038 1626.64 602.365 1619.27 558.875 C 1608.54 495.559 1566.28 436.948 1514.75 399.591 C 1510.81 396.734 1506.88 394.387 1502.53 392.255 C 1486.02 437.995 1473.5 473.697 1421.56 483.436 z M 656.814 555.782 C 646.357 557.85 642.264 558.111 632.714 553.04 C 618.012 576.938 603.435 577.284 581.689 594.104 C 576.929 593.856 582.464 598.003 573.33 597.428 C 574.393 595.499 574.58 594.089 574.713 591.887 C 586.093 574.362 611.407 572.159 626.303 549.102 C 613.616 509.26 632.554 520.174 632.202 484.748 C 621.192 484.164 613.64 483.642 604.113 476.983 C 583.795 462.78 571.653 439.104 563.154 416.46 C 561.35 411.652 558.801 401.007 556.239 397.298 L 554.853 397.689 C 554.867 394.343 555.498 393.395 553.935 391.219 C 538.622 392.994 492.605 441.581 483.131 452.811 C 425.401 521.241 401.683 649.081 479.249 712.954 C 551.085 772.11 653.12 704.084 702.344 646.314 C 703.018 645.522 703.747 644.395 704.329 643.537 C 697.491 620.287 689.332 605.433 675.287 585.742 C 669.063 577.018 660.824 565.369 656.814 555.782 z M 1065.93 1265.31 L 991.097 1376.97 C 980.042 1393.4 958.407 1423.5 949.012 1439.99 L 1026.5 1440 L 1255.31 1440.04 C 1279.28 1409.14 1294.89 1375.51 1309.53 1339.61 C 1302.36 1332.11 1298.12 1327.05 1298.68 1315.57 C 1299.46 1299.79 1308.66 1283.55 1314.84 1269.35 C 1295.14 1267.56 1289.49 1261.79 1276.03 1248.16 C 1271.8 1243.88 1252.85 1222.7 1248.7 1221.01 C 1178.45 1250.6 1141.46 1256.89 1065.93 1265.31 z M 675.449 352.329 C 666.145 353.57 612.156 363.272 610.708 378.207 C 610.203 383.419 622.438 380.385 625.647 379.488 C 639.321 374.326 651.136 369.642 665.338 366.742 C 673.927 364.988 691.238 366.201 688.241 354.966 C 687.017 350.377 678.586 352.085 675.449 352.329 z M 961.878 1496.89 C 964.374 1488.93 964.752 1469.94 962.495 1461.38 C 961.888 1459.07 954.106 1460.15 952.078 1460.27 C 950.922 1466.51 950.811 1472.67 951.074 1479 C 951.566 1490.86 947.896 1497.96 961.878 1496.89 z M 1458.66 392.905 C 1463.8 380.625 1452.81 378.765 1443.28 379.098 C 1438.87 391.039 1448.4 393.255 1458.66 392.905 z M 624.442 787.751 C 615.791 787.312 611.056 792.707 606.691 788.8 C 606.799 787.715 616.442 783.517 618.46 785.176 C 618.535 784.756 618.611 784.337 618.687 783.917 L 618.908 781.899 C 611.168 783.514 596.789 789.413 590.408 794.032 C 585.665 797.977 583.311 800.58 579.468 805.464 C 580.61 810.204 580.006 810.25 582.719 814.162 C 587.994 806.99 588.898 806.006 595.415 800.14 C 605.219 793.966 613.737 791.732 624.442 787.751 z M 1125.4 1458.68 C 1122.11 1462.4 1120.37 1466.81 1121.13 1471.65 C 1123.32 1485.65 1114.65 1494 1129.58 1497.81 L 1130.85 1496.65 C 1133.98 1493.85 1134.5 1487.3 1133.95 1483.51 C 1132.03 1470.2 1139.45 1462.66 1125.4 1458.68 z M 1039.6 1459.95 L 1038.57 1461.51 C 1036.15 1465.06 1036.53 1472.27 1036.86 1476.5 C 1038.06 1491.96 1032.03 1495.24 1047.02 1496.3 L 1047.72 1495.05 C 1049.7 1491.71 1049.25 1479.72 1049.08 1475.44 C 1048.58 1462.73 1051.82 1460.06 1039.6 1459.95 z M 597.638 393.471 C 608.118 388.798 611.634 379.27 596.836 378.908 C 587.297 383.82 584.434 392.652 597.638 393.471 z M 1120.82 705.803 C 1120.14 712.434 1124.02 711.154 1130.66 711.756 C 1132.01 705.424 1126.5 706.264 1120.82 705.803 z M 548.151 740.38 C 545.384 740.312 535.857 739.09 535.281 742.854 C 541.575 743.516 545.094 744.014 551.446 743.308 L 552.909 742.963 C 552.137 740.605 550.603 740.911 548.151 740.38 z M 1183.96 584.936 L 1181.99 585.477 C 1180.98 585.671 1179.36 585.691 1178.66 586.565 C 1178.56 587.596 1180.42 588.294 1181.04 588.638 C 1181.92 587.557 1183.23 586.078 1183.96 584.936 z M 1030.49 660.439 C 1046.42 657.647 1057.05 642.46 1054.23 626.541 C 1051.41 610.622 1036.2 600.016 1020.29 602.867 C 1004.42 605.71 993.842 620.868 996.656 636.746 C 999.471 652.623 1014.61 663.224 1030.49 660.439 z M 1495.82 742.813 C 1502.51 743.382 1506.34 743.829 1513.06 743.078 C 1507.76 739.934 1501 739.069 1495.82 742.813 z M 803.192 1217.6 C 794.711 1227.23 786.26 1236.73 777.27 1245.88 C 763.174 1260.23 756.468 1268.53 735.22 1266.85 C 745.35 1288.61 766.278 1320.81 743.185 1340.08 C 751.525 1366.48 779.056 1420.51 798.062 1439.99 C 814.5 1440.05 862.357 1441.13 875.765 1439.32 C 881.738 1431.95 886.907 1423.76 892.146 1415.83 C 915.305 1381.06 938.655 1346.41 962.195 1311.89 C 968.135 1303.17 989.458 1273.5 993.666 1265.65 C 933.984 1257.9 877.105 1251.61 821.81 1225.24 C 818.426 1223.63 806.407 1218.22 803.192 1217.6 z M 1415.06 364.776 C 1404.36 375.92 1423.56 379.638 1430.9 381.478 C 1441.77 371.585 1423.33 365.391 1415.06 364.776 z M 1369.01 352.753 L 1368.59 354.602 C 1365.58 367.127 1373.05 363.205 1383 367.153 C 1386.65 368.603 1392.13 368.122 1395.95 367.654 C 1396.58 365.536 1398.14 361.911 1396.49 359.977 C 1390.74 353.275 1376.87 352.918 1369.01 352.753 z M 769.427 1577.48 C 763.939 1585.53 761.232 1589.41 754.745 1596.48 C 729.124 1591.45 694.383 1601.44 672.831 1615.93 C 644.775 1634.47 625.43 1663.59 619.214 1696.64 C 614.166 1723.72 620.115 1751.7 635.746 1774.39 C 649.215 1793.7 668.016 1805.17 690.494 1811.29 C 723.165 1817.06 750.329 1812.16 777.841 1793.13 C 804.602 1774.45 822.758 1745.81 828.244 1713.64 C 833.12 1685.28 827.603 1674.72 825.459 1649.36 C 828.777 1641.1 833.428 1633.45 837.841 1625.71 C 820.742 1613.63 804.217 1600.95 787.035 1589.07 C 783.519 1586.64 772.571 1578.87 769.427 1577.48 z M 1056.53 1185.14 C 1058.97 1182.04 1060.62 1179.61 1062.55 1176.2 C 1056.44 1173.38 1049.16 1180.57 1056.53 1185.14 z" fill="rgb(9,39,63)" transform="translate(0,0)"></path>
<path d="M 1317.51 1179.43 C 1320.05 1181.33 1322.86 1183.2 1325.49 1185.09 C 1335.56 1193.05 1362.01 1208.78 1363.73 1220.62 C 1365.63 1233.74 1315.1 1261.03 1306.19 1260.27 C 1293.51 1259.2 1265.86 1227.17 1256.94 1217.26 C 1281.61 1204.73 1295.21 1195.58 1317.51 1179.43 z" fill="rgb(241,108,57)" transform="translate(0,0)"></path>
<path d="M 856.869 735.485 C 976.118 684.75 1071.57 689.439 1191.03 733.726 C 1198.16 735.249 1212.42 742.399 1219.04 745.764 C 1303.6 785.999 1380.08 845.873 1413.95 936.783 C 1424.72 965.712 1417.09 978.601 1404.37 1005.99 C 1366.9 1086.64 1278.35 1142.88 1196.85 1171.99 C 1174.27 1180.06 1141.03 1189.36 1116.98 1191.66 C 1124.63 1178.82 1133.07 1166.46 1142.22 1154.65 C 1145.95 1155.63 1152.49 1157.71 1156.35 1154.95 C 1164.91 1148.8 1174.15 1132.15 1178.33 1122.39 C 1178.94 1120.96 1177.36 1115.11 1176.97 1113.54 C 1178.96 1108.49 1187.13 1096.72 1190.32 1091.75 C 1203.07 1071.88 1217.14 1052.76 1230.69 1033.4 C 1237.72 1032.23 1240.21 1030.67 1244.29 1024.82 C 1251 1015.19 1270.13 995.993 1255.9 985.436 C 1242.69 975.641 1229.16 967.858 1216.38 957.528 C 1196.89 941.803 1191.91 944.272 1178.71 964.555 C 1174.96 970.346 1169.97 977.186 1167.45 983.879 C 1166.79 985.598 1168.78 988.804 1169.6 990.402 C 1166.42 997.355 1115.23 1071.44 1113.09 1072.51 C 1111.61 1073.26 1109.02 1073.06 1107.39 1073.05 C 1101.37 1077.07 1085.55 1099.21 1083.75 1107.54 C 1083.09 1110.59 1085.84 1113.97 1087.92 1116.22 C 1089.26 1117.65 1090.62 1119.06 1092 1120.44 C 1081.76 1132.44 1069.46 1152.51 1060.25 1165.92 C 1055.35 1173.06 1042.34 1190.86 1038.85 1197.3 C 1011.68 1197.2 982.426 1196.52 955.468 1192.56 C 862.328 1178.89 767.297 1140.18 700.417 1072.26 C 677.349 1048.83 634.826 996.944 633.828 963.928 C 633.042 937.929 654.373 900.414 668.458 878.518 C 673.989 871.813 683.748 858.744 689.117 851.494 C 708.85 828.926 724.397 815.295 747.984 796.797 C 750.438 795.094 752.701 793.559 755.066 791.718 C 771.988 779.228 803.069 761.033 822.029 752.139 C 823.281 751.429 824.52 750.849 825.842 750.28 L 827.635 749.475 C 831.628 746.721 851.715 737.146 856.869 735.485 z M 1051.77 865.694 C 1054.52 864.218 1055.74 862.754 1058.53 860.999 L 1056.37 859.706 C 1052.87 856.472 1006.18 859.048 997.968 858.155 C 995.48 857.885 994.327 859.877 992.861 861.561 C 986.233 870.94 982.626 873.266 971.318 872.981 C 968.446 873.794 967.307 876.794 965.519 879.363 C 973.405 880.762 979.412 882.665 987.172 877.903 C 995.47 873.072 994.224 870.573 999.744 865.603 C 1002.93 865.254 1006.12 864.967 1009.31 864.744 C 1017.58 865.162 1045.95 863.802 1051.77 865.694 z M 889.636 900.871 C 933.252 894.965 963.79 854.773 957.791 811.169 C 951.791 767.565 911.533 737.114 867.942 743.207 C 824.483 749.282 794.145 789.391 800.126 832.863 C 806.108 876.334 846.151 906.759 889.636 900.871 z M 683.145 918.169 L 684.267 917.056 C 688.065 913.455 691.587 903.34 694.107 898.146 C 698.145 889.654 703.617 881.922 710.283 875.29 C 717.149 868.487 726.9 859.895 710.284 856.612 C 698.445 863.583 690.542 876.389 683.438 887.825 C 677.252 897.783 663.578 915.258 683.145 918.169 z M 946.338 925.484 C 964.546 918.903 984.301 911.705 1003.49 908.915 C 1016.06 907.089 1021.36 895.368 1007.44 894.325 C 988.831 896.349 952.905 904.189 937.607 915.218 C 934.894 917.174 935.397 926.107 946.338 925.484 z M 837.04 1124.54 C 834.32 1125.39 832.714 1128.2 833.355 1130.97 C 833.996 1133.75 836.668 1135.57 839.486 1135.14 C 841.511 1134.83 843.194 1133.42 843.843 1131.48 C 844.491 1129.53 843.997 1127.39 842.562 1125.93 C 841.127 1124.47 838.995 1123.93 837.04 1124.54 z M 1226.42 1131.07 C 1228.24 1130.28 1229.48 1128.54 1229.61 1126.55 C 1229.75 1124.57 1228.77 1122.67 1227.07 1121.64 C 1225.37 1120.6 1223.24 1120.61 1221.54 1121.64 C 1219.15 1123.09 1218.29 1126.15 1219.58 1128.63 C 1220.86 1131.11 1223.85 1132.18 1226.42 1131.07 z M 1271.28 1098.57 C 1269.43 1099.16 1268.05 1100.72 1267.7 1102.63 C 1267.35 1104.54 1268.07 1106.49 1269.59 1107.71 C 1271.11 1108.92 1273.17 1109.19 1274.96 1108.43 C 1277.54 1107.32 1278.79 1104.38 1277.81 1101.75 C 1276.83 1099.12 1273.95 1097.72 1271.28 1098.57 z M 695.07 1017.62 C 696.61 1014.98 698.115 1012.68 697.21 1009.5 C 696.7 1007.67 695.47 1006.12 693.8 1005.2 C 693.245 1004.93 692.69 1004.65 692.135 1004.38 C 686.753 1011.23 687.13 1014.38 695.07 1017.62 z M 901.435 1148.83 C 902.6 1139.63 899.574 1139.92 891.363 1139.7 C 892.226 1148.12 891.6 1152.01 901.435 1148.83 z M 786.328 1040.97 C 784.182 1042.43 783.001 1044.94 783.25 1047.52 C 783.499 1050.1 785.138 1052.34 787.523 1053.36 C 789.907 1054.38 792.658 1054.01 794.694 1052.4 C 797.688 1050.04 798.276 1045.73 796.024 1042.66 C 793.771 1039.58 789.486 1038.83 786.328 1040.97 z M 718.414 1048.26 C 719.949 1047.38 720.893 1045.74 720.886 1043.97 C 720.878 1042.21 719.919 1040.58 718.376 1039.72 C 716.834 1038.85 714.946 1038.88 713.434 1039.8 C 711.139 1041.19 710.389 1044.17 711.752 1046.49 C 713.115 1048.8 716.084 1049.59 718.414 1048.26 z M 1379.54 960.478 C 1382.53 959.897 1384.48 957.004 1383.89 954.02 C 1383.3 951.037 1380.4 949.096 1377.42 949.69 C 1374.45 950.282 1372.52 953.169 1373.1 956.143 C 1373.69 959.117 1376.57 961.056 1379.54 960.478 z M 1237.08 881.219 C 1228.33 877.319 1227.12 888.613 1224.38 890.655 L 1223.44 890.695 L 1223.47 890.748 C 1221.64 889.349 1219.98 888.316 1220.2 886.631 C 1239.03 870.255 1250.6 853.056 1252.49 827.382 C 1253.88 806.576 1247.08 786.051 1233.54 770.195 C 1219.25 754.069 1199.12 744.316 1177.61 743.1 C 1156.49 741.84 1135.75 749.064 1119.98 763.167 C 1104.8 776.945 1094.4 797.818 1093.53 818.389 C 1092.69 839.187 1100.07 859.479 1114.08 874.881 C 1128.96 891.107 1149.75 900.65 1171.76 901.355 C 1189.1 901.854 1203.15 897.489 1217.7 888.174 C 1218.53 891.902 1218.16 892.345 1221.06 894.823 C 1227.63 891 1232.13 886.985 1237.08 881.219 z M 796.977 1104.44 C 799.801 1094.89 795.738 1095.95 787.665 1096.05 C 788.114 1103.97 788.382 1104.99 796.977 1104.44 z M 1341.94 1031.47 C 1339.38 1032.93 1338.4 1036.13 1339.71 1038.77 C 1341.02 1041.41 1344.17 1042.56 1346.87 1041.4 C 1348.76 1040.59 1350.05 1038.8 1350.22 1036.75 C 1350.38 1034.7 1349.4 1032.73 1347.67 1031.62 C 1345.93 1030.52 1343.73 1030.46 1341.94 1031.47 z M 676.452 952.642 C 681.227 951.748 684.481 947.291 683.877 942.471 C 683.273 937.651 679.021 934.134 674.173 934.446 C 670.766 934.665 667.761 936.756 666.372 939.875 C 664.983 942.994 665.438 946.626 667.553 949.305 C 669.669 951.985 673.096 953.27 676.452 952.642 z M 885.649 942.986 C 875.162 947.124 858.391 956.648 853.463 966.819 C 850.163 973.631 857.044 976.395 862.847 975.919 C 866.579 973.562 894.48 955.531 895.643 952.013 C 898.152 944.424 892.66 942.893 885.649 942.986 z M 1372.23 989.431 C 1370.3 990.122 1368.9 991.824 1368.6 993.857 C 1368.31 995.889 1369.16 997.919 1370.81 999.136 C 1372.47 1000.35 1374.66 1000.56 1376.51 999.664 C 1379.17 998.383 1380.36 995.244 1379.22 992.519 C 1378.08 989.795 1375.01 988.438 1372.23 989.431 z M 836.895 982.806 C 828.77 989.702 815.119 1006.99 834.552 1008.28 C 842.158 1000.37 857.373 983.804 836.895 982.806 z" fill="rgb(241,108,57)" transform="translate(0,0)"></path>
<path d="M 1168.34 772.546 C 1195.81 769.979 1220.22 790.048 1223.01 817.502 C 1225.8 844.956 1205.93 869.523 1178.49 872.534 C 1150.75 875.579 1125.84 855.429 1123.02 827.659 C 1120.2 799.89 1140.55 775.142 1168.34 772.546 z" fill="rgb(9,39,63)" transform="translate(0,0)"></path>
<path d="M 999.441 860.606 C 1016.94 860.181 1034.52 859.755 1052.01 860.019 C 1054.46 860.056 1053.84 860.223 1056.37 859.706 L 1058.53 860.999 C 1055.74 862.754 1054.52 864.218 1051.77 865.694 C 1045.95 863.802 1017.58 865.162 1009.31 864.744 C 1006.33 859.598 1005.48 861.717 999.441 860.606 z" fill="rgb(10,25,45)" fill-opacity="0.360784" transform="translate(0,0)"></path>
<path d="M 992.861 861.561 C 994.327 859.877 995.48 857.885 997.968 858.155 C 1006.18 859.048 1052.87 856.472 1056.37 859.706 C 1053.84 860.223 1054.46 860.056 1052.01 860.019 C 1034.52 859.755 1016.94 860.181 999.441 860.606 C 994.494 859.914 997.558 864.064 999.744 865.603 C 994.224 870.573 995.47 873.072 987.172 877.903 C 979.865 871.712 993.113 871.988 992.799 863.241 L 992.861 861.561 z" fill="rgb(12,32,57)" fill-opacity="0.67451" transform="translate(0,0)"></path>
<path d="M 992.861 861.561 L 992.799 863.241 C 993.113 871.988 979.865 871.712 987.172 877.903 C 979.412 882.665 973.405 880.762 965.519 879.363 C 967.307 876.794 968.446 873.794 971.318 872.981 C 982.626 873.266 986.233 870.94 992.861 861.561 z" fill="rgb(12,32,57)" fill-opacity="0.976471" transform="translate(0,0)"></path>
<path d="M 1220.2 886.631 C 1219.98 888.316 1221.64 889.349 1223.47 890.748 L 1223.44 890.695 L 1224.38 890.655 C 1227.12 888.613 1228.33 877.319 1237.08 881.219 C 1232.13 886.985 1227.63 891 1221.06 894.823 C 1218.16 892.345 1218.53 891.902 1217.7 888.174 L 1220.2 886.631 z" fill="rgb(9,39,63)" fill-opacity="0.894118" transform="translate(0,0)"></path>
<path d="M 999.744 865.603 C 997.558 864.064 994.494 859.914 999.441 860.606 C 1005.48 861.717 1006.33 859.598 1009.31 864.744 C 1006.12 864.967 1002.93 865.254 999.744 865.603 z" fill="rgb(10,25,45)" fill-opacity="0.14902" transform="translate(0,0)"></path>
<path d="M 856.869 735.485 C 976.118 684.75 1071.57 689.439 1191.03 733.726 C 1189.83 735.385 1189.93 735.223 1188.18 736.57 C 1136.99 729.712 1093.98 759.128 1086.37 811.699 C 1083.48 831.652 1088.41 847.834 1096.37 865.977 C 1088.38 869.714 1084.48 871.498 1075.72 873.416 C 1067.36 870.817 1062.61 869.266 1058.53 860.999 L 1056.37 859.706 C 1052.87 856.472 1006.18 859.048 997.968 858.155 C 995.48 857.885 994.327 859.877 992.861 861.561 C 986.233 870.94 982.626 873.266 971.318 872.981 C 965.263 870.769 960.889 868.612 955.106 865.793 C 966.857 843.956 969.736 820.267 962.425 796.367 C 955.682 774.401 940.574 755.966 920.362 745.039 C 902.795 735.735 879.95 731.605 860.665 737.501 L 856.869 735.485 z" fill="rgb(241,108,57)" transform="translate(0,0)"></path>
<path d="M 860.665 737.501 C 879.95 731.605 902.795 735.735 920.362 745.039 C 940.574 755.966 955.682 774.401 962.425 796.367 C 969.736 820.267 966.857 843.956 955.106 865.793 C 960.889 868.612 965.263 870.769 971.318 872.981 C 968.446 873.794 967.307 876.794 965.519 879.363 C 960.91 877.15 956.331 874.876 951.784 872.539 C 947.91 877.518 943.608 882.149 938.927 886.38 C 919.885 903.507 897.276 910.575 871.835 909.034 C 848.967 907.458 827.674 896.821 812.68 879.483 C 797.29 861.901 789.568 838.896 791.232 815.589 C 793.22 790.232 805.076 770.301 824.084 754.036 L 822.029 752.139 C 823.281 751.429 824.52 750.849 825.842 750.28 L 827.635 749.475 C 831.628 746.721 851.715 737.146 856.869 735.485 L 860.665 737.501 z M 889.636 900.871 C 933.252 894.965 963.79 854.773 957.791 811.169 C 951.791 767.565 911.533 737.114 867.942 743.207 C 824.483 749.282 794.145 789.391 800.126 832.863 C 806.108 876.334 846.151 906.759 889.636 900.871 z" fill="rgb(9,39,63)" transform="translate(0,0)"></path>
<path d="M 827.635 749.475 C 831.628 746.721 851.715 737.146 856.869 735.485 L 860.665 737.501 C 847.127 740.623 840.427 744.76 828.349 751.17 L 827.635 749.475 z" fill="rgb(153,97,81)" transform="translate(0,0)"></path>
<path d="M 827.635 749.475 L 828.349 751.17 L 824.084 754.036 L 822.029 752.139 C 823.281 751.429 824.52 750.849 825.842 750.28 L 827.635 749.475 z" fill="rgb(196,111,69)" transform="translate(0,0)"></path>
<path d="M 874.29 772.401 C 901.728 770.021 925.985 790.131 928.732 817.534 C 931.478 844.937 911.695 869.461 884.331 872.574 C 866.302 874.625 848.563 866.814 837.903 852.13 C 827.242 837.446 825.309 818.161 832.843 801.653 C 840.377 785.145 856.213 773.97 874.29 772.401 z" fill="rgb(9,39,63)" transform="translate(0,0)"></path>
<path d="M 1191.03 733.726 C 1198.16 735.249 1212.42 742.399 1219.04 745.764 L 1218.01 747.181 C 1240.71 762.84 1253.77 778.947 1258.96 807.033 C 1263.16 829.701 1258.12 853.106 1244.98 872.043 C 1243.26 874.49 1239.37 879.604 1237.08 881.219 C 1228.33 877.319 1227.12 888.613 1224.38 890.655 L 1223.44 890.695 L 1223.47 890.748 C 1221.64 889.349 1219.98 888.316 1220.2 886.631 C 1239.03 870.255 1250.6 853.056 1252.49 827.382 C 1253.88 806.576 1247.08 786.051 1233.54 770.195 C 1219.25 754.069 1199.12 744.316 1177.61 743.1 C 1156.49 741.84 1135.75 749.064 1119.98 763.167 C 1104.8 776.945 1094.4 797.818 1093.53 818.389 C 1092.69 839.187 1100.07 859.479 1114.08 874.881 C 1128.96 891.107 1149.75 900.65 1171.76 901.355 C 1189.1 901.854 1203.15 897.489 1217.7 888.174 C 1218.53 891.902 1218.16 892.345 1221.06 894.823 C 1180.12 922.968 1132.17 908.519 1101.15 873.31 C 1080.57 881.477 1066.67 887.438 1051.77 865.694 C 1054.52 864.218 1055.74 862.754 1058.53 860.999 C 1062.61 869.266 1067.36 870.817 1075.72 873.416 C 1084.48 871.498 1088.38 869.714 1096.37 865.977 C 1088.41 847.834 1083.48 831.652 1086.37 811.699 C 1093.98 759.128 1136.99 729.712 1188.18 736.57 C 1189.93 735.223 1189.83 735.385 1191.03 733.726 z" fill="rgb(9,39,63)" transform="translate(0,0)"></path>
<path d="M 1191.03 733.726 C 1198.16 735.249 1212.42 742.399 1219.04 745.764 L 1218.01 747.181 C 1205.95 740.598 1199.9 740.795 1188.18 736.57 C 1189.93 735.223 1189.83 735.385 1191.03 733.726 z" fill="rgb(196,111,69)" transform="translate(0,0)"></path>
<path d="M 751.776 894.28 C 774.558 890.263 796.244 905.592 800.058 928.408 C 803.872 951.225 788.35 972.774 765.501 976.384 C 742.938 979.949 721.717 964.664 717.951 942.133 C 714.185 919.603 729.28 898.247 751.776 894.28 z" fill="rgb(9,39,63)" transform="translate(0,0)"></path>
<path d="M 1310.52 883.672 C 1333.31 883.222 1352.17 901.278 1352.72 924.062 C 1353.26 946.846 1335.29 965.786 1312.51 966.429 C 1289.59 967.077 1270.51 948.97 1269.96 926.048 C 1269.41 903.127 1287.6 884.125 1310.52 883.672 z" fill="rgb(9,39,63)" transform="translate(0,0)"></path>
<path d="M 1372.23 989.431 C 1375.01 988.438 1378.08 989.795 1379.22 992.519 C 1380.36 995.244 1379.17 998.383 1376.51 999.664 C 1374.66 1000.56 1372.47 1000.35 1370.81 999.136 C 1369.16 997.919 1368.31 995.889 1368.6 993.857 C 1368.9 991.824 1370.3 990.122 1372.23 989.431 z" fill="rgb(10,25,45)" fill-opacity="0.764706" transform="translate(0,0)"></path>
<path d="M 1341.94 1031.47 C 1343.73 1030.46 1345.93 1030.52 1347.67 1031.62 C 1349.4 1032.73 1350.38 1034.7 1350.22 1036.75 C 1350.05 1038.8 1348.76 1040.59 1346.87 1041.4 C 1344.17 1042.56 1341.02 1041.41 1339.71 1038.77 C 1338.4 1036.13 1339.38 1032.93 1341.94 1031.47 z" fill="rgb(12,32,57)" fill-opacity="0.980392" transform="translate(0,0)"></path>
<path d="M 742.293 1068.75 C 743.924 1067.57 746.068 1067.37 747.887 1068.24 C 749.705 1069.1 750.908 1070.89 751.027 1072.9 C 751.145 1074.9 750.16 1076.82 748.456 1077.89 C 745.935 1079.47 742.612 1078.77 740.948 1076.3 C 739.284 1073.84 739.879 1070.49 742.293 1068.75 z" fill="rgb(10,25,45)" transform="translate(0,0)"></path>
<path d="M 1377.42 949.69 C 1380.4 949.096 1383.3 951.037 1383.89 954.02 C 1384.48 957.004 1382.53 959.897 1379.54 960.478 C 1376.57 961.056 1373.69 959.117 1373.1 956.143 C 1372.52 953.169 1374.45 950.282 1377.42 949.69 z" fill="rgb(10,25,45)" fill-opacity="0.690196" transform="translate(0,0)"></path>
<path d="M 1312.98 1067.55 C 1315.72 1066.36 1318.9 1067.58 1320.14 1070.3 C 1321.37 1073.02 1320.2 1076.22 1317.51 1077.51 C 1315.72 1078.35 1313.62 1078.17 1312 1077.03 C 1310.39 1075.89 1309.51 1073.97 1309.72 1072 C 1309.92 1070.04 1311.17 1068.33 1312.98 1067.55 z" fill="rgb(12,32,57)" transform="translate(0,0)"></path>
<path d="M 837.04 1124.54 C 838.995 1123.93 841.127 1124.47 842.562 1125.93 C 843.997 1127.39 844.491 1129.53 843.843 1131.48 C 843.194 1133.42 841.511 1134.83 839.486 1135.14 C 836.668 1135.57 833.996 1133.75 833.355 1130.97 C 832.714 1128.2 834.32 1125.39 837.04 1124.54 z" fill="rgb(10,25,45)" fill-opacity="0.568627" transform="translate(0,0)"></path>
<path d="M 1221.54 1121.64 C 1223.24 1120.61 1225.37 1120.6 1227.07 1121.64 C 1228.77 1122.67 1229.75 1124.57 1229.61 1126.55 C 1229.48 1128.54 1228.24 1130.28 1226.42 1131.07 C 1223.85 1132.18 1220.86 1131.11 1219.58 1128.63 C 1218.29 1126.15 1219.15 1123.09 1221.54 1121.64 z" fill="rgb(10,25,45)" fill-opacity="0.788235" transform="translate(0,0)"></path>
<path d="M 1271.28 1098.57 C 1273.95 1097.72 1276.83 1099.12 1277.81 1101.75 C 1278.79 1104.38 1277.54 1107.32 1274.96 1108.43 C 1273.17 1109.19 1271.11 1108.92 1269.59 1107.71 C 1268.07 1106.49 1267.35 1104.54 1267.7 1102.63 C 1268.05 1100.72 1269.43 1099.16 1271.28 1098.57 z" fill="rgb(12,32,57)" fill-opacity="0.988235" transform="translate(0,0)"></path>
<path d="M 891.363 1139.7 C 899.574 1139.92 902.6 1139.63 901.435 1148.83 C 891.6 1152.01 892.226 1148.12 891.363 1139.7 z" fill="rgb(9,39,63)" fill-opacity="0.486275" transform="translate(0,0)"></path>
<path d="M 1502.53 392.255 C 1506.88 394.387 1510.81 396.734 1514.75 399.591 C 1566.28 436.948 1608.54 495.559 1619.27 558.875 C 1626.64 602.365 1623.69 651.038 1597.24 687.688 C 1578.95 713.024 1555.93 729.343 1524.9 734.178 C 1474.86 741.975 1432.36 715.815 1393.48 687.67 C 1376.87 675.01 1356.98 655.424 1343.86 639.108 C 1349.39 606.003 1372.41 578.271 1390.41 551.206 C 1401.4 557.762 1409.05 559.085 1421.55 554.962 C 1433.9 574.862 1445.67 572.392 1460.48 588.503 C 1468.25 596.944 1461.94 607.702 1466.42 613.569 L 1469.11 613.854 C 1475.06 610.554 1472.98 604.785 1472.33 599.006 C 1469.33 572.281 1439.57 573.071 1428.32 550.58 L 1427.75 549.417 C 1429.37 545.375 1432.21 538.777 1432.79 534.63 C 1434.64 521.342 1425.37 511.857 1422.66 499.368 C 1421.51 494.065 1421.6 488.857 1421.56 483.436 C 1473.5 473.697 1486.02 437.995 1502.53 392.255 z M 1486.76 651.27 C 1496.7 644.964 1497.87 637.172 1485.09 634.593 L 1483.96 635.393 C 1475.99 640.854 1478.82 650.226 1486.76 651.27 z M 1490.44 688.687 C 1492.92 687.705 1494.66 685.445 1494.98 682.798 C 1495.3 680.151 1494.14 677.542 1491.97 676 C 1489.79 674.457 1486.95 674.228 1484.56 675.402 C 1481.05 677.122 1479.53 681.303 1481.11 684.873 C 1482.69 688.443 1486.81 690.127 1490.44 688.687 z M 1594.26 576.427 C 1596.67 575.69 1598.47 573.689 1598.96 571.221 C 1599.45 568.753 1598.54 566.217 1596.59 564.623 C 1594.64 563.029 1591.98 562.634 1589.66 563.596 C 1586.29 564.989 1584.61 568.781 1585.84 572.209 C 1587.07 575.638 1590.78 577.494 1594.26 576.427 z M 1585.59 555.665 L 1587.06 554.849 C 1590.94 552.955 1592.27 550.341 1589.62 546.318 C 1587.24 542.689 1583.28 542.936 1579.38 542.562 C 1573.56 555.13 1584.13 558.304 1585.59 555.665 z" fill="rgb(241,108,57)" transform="translate(0,0)"></path>
<path d="M 1485.09 634.593 C 1497.87 637.172 1496.7 644.964 1486.76 651.27 C 1478.82 650.226 1475.99 640.854 1483.96 635.393 L 1485.09 634.593 z" fill="rgb(12,32,57)" fill-opacity="0.854902" transform="translate(0,0)"></path>
<path d="M 1484.56 675.402 C 1486.95 674.228 1489.79 674.457 1491.97 676 C 1494.14 677.542 1495.3 680.151 1494.98 682.798 C 1494.66 685.445 1492.92 687.705 1490.44 688.687 C 1486.81 690.127 1482.69 688.443 1481.11 684.873 C 1479.53 681.303 1481.05 677.122 1484.56 675.402 z" fill="rgb(10,25,45)" fill-opacity="0.733333" transform="translate(0,0)"></path>
<path d="M 704.329 643.537 C 703.747 644.395 703.018 645.522 702.344 646.314 C 653.12 704.084 551.085 772.11 479.249 712.954 C 401.683 649.081 425.401 521.241 483.131 452.811 C 492.605 441.581 538.622 392.994 553.935 391.219 C 555.498 393.395 554.867 394.343 554.853 397.689 L 556.239 397.298 C 558.801 401.007 561.35 411.652 563.154 416.46 C 571.653 439.104 583.795 462.78 604.113 476.983 C 613.64 483.642 621.192 484.164 632.202 484.748 C 632.554 520.174 613.616 509.26 626.303 549.102 C 611.407 572.159 586.093 574.362 574.713 591.887 C 563.452 603.718 574.601 632.485 578.393 605.599 L 578.579 602.226 C 579.531 598.588 580.605 597.378 581.689 594.104 C 603.435 577.284 618.012 576.938 632.714 553.04 C 642.264 558.111 646.357 557.85 656.814 555.782 C 660.824 565.369 669.063 577.018 675.287 585.742 C 689.332 605.433 697.491 620.287 704.329 643.537 z M 495.112 500.792 C 505.691 493.515 516.959 466.468 528.653 455.689 C 537.016 447.98 533.921 436.791 519.248 436.909 L 515.985 439.153 C 503.94 447.558 459.315 501.249 495.112 500.792 z M 460.446 580.372 L 461.396 579.04 C 467.63 570.826 466.674 560.832 454.076 560.804 C 446.43 570.146 447.11 579.093 460.446 580.372 z M 464.165 551.061 C 470.301 543.759 477.116 532.644 462.517 531.768 L 461.17 533.141 C 454.925 539.272 451.845 551.362 464.165 551.061 z M 563.095 649.464 C 565.418 648.129 566.844 645.649 566.829 642.969 C 566.814 640.29 565.36 637.826 563.021 636.517 C 560.683 635.209 557.822 635.259 555.531 636.647 C 552.045 638.76 550.907 643.283 552.979 646.794 C 555.05 650.304 559.56 651.494 563.095 649.464 z M 560.447 688.687 C 562.691 687.424 564.072 685.041 564.05 682.466 C 564.028 679.89 562.608 677.531 560.342 676.307 C 558.076 675.082 555.324 675.187 553.158 676.581 C 549.943 678.649 548.954 682.897 550.926 686.172 C 552.898 689.446 557.115 690.56 560.447 688.687 z M 482.22 580.707 L 483.384 579.301 C 489.14 572.662 486.877 565.322 477.695 565.7 C 472.336 572.808 470.264 580.707 482.22 580.707 z" fill="rgb(241,108,57)" transform="translate(0,0)"></path>
<path d="M 555.531 636.647 C 557.822 635.259 560.683 635.209 563.021 636.517 C 565.36 637.826 566.814 640.29 566.829 642.969 C 566.844 645.649 565.418 648.129 563.095 649.464 C 559.56 651.494 555.05 650.304 552.979 646.794 C 550.907 643.283 552.045 638.76 555.531 636.647 z" fill="rgb(12,32,57)" fill-opacity="0.87451" transform="translate(0,0)"></path>
<path d="M 553.158 676.581 C 555.324 675.187 558.076 675.082 560.342 676.307 C 562.608 677.531 564.028 679.89 564.05 682.466 C 564.072 685.041 562.691 687.424 560.447 688.687 C 557.115 690.56 552.898 689.446 550.926 686.172 C 548.954 682.897 549.943 678.649 553.158 676.581 z" fill="rgb(12,32,57)" fill-opacity="0.984314" transform="translate(0,0)"></path>
<path d="M 1112.44 1341.67 C 1128.8 1337.69 1145.32 1347.64 1149.44 1363.97 C 1153.56 1380.29 1143.75 1396.89 1127.46 1401.15 C 1110.97 1405.47 1094.13 1395.51 1089.96 1378.99 C 1085.78 1362.46 1095.88 1345.71 1112.44 1341.67 z M 1120.73 1365.11 C 1127.54 1353.33 1123.03 1350.8 1111.1 1350.94 C 1107.15 1354.35 1106.31 1357.57 1109.51 1362.01 C 1112.12 1365.62 1116.92 1365.06 1120.73 1365.11 z" fill="rgb(9,39,63)" transform="translate(0,0)"></path>
<path d="M 1112.47 1347.98 C 1125.4 1344.14 1139 1351.5 1142.85 1364.43 C 1146.7 1377.36 1139.34 1390.96 1126.41 1394.82 C 1113.48 1398.68 1099.86 1391.32 1096.01 1378.38 C 1092.16 1365.44 1099.53 1351.83 1112.47 1347.98 z M 1120.73 1365.11 C 1127.54 1353.33 1123.03 1350.8 1111.1 1350.94 C 1107.15 1354.35 1106.31 1357.57 1109.51 1362.01 C 1112.12 1365.62 1116.92 1365.06 1120.73 1365.11 z" fill="rgb(11,168,174)" transform="translate(0,0)"></path>
<path d="M 1209.41 1303.33 C 1225.11 1300.4 1240.23 1310.68 1243.3 1326.35 C 1246.36 1342.02 1236.23 1357.24 1220.58 1360.44 C 1204.74 1363.69 1189.29 1353.39 1186.19 1337.52 C 1183.08 1321.65 1193.51 1306.3 1209.41 1303.33 z M 1213.32 1328.53 L 1214.45 1327.26 C 1223.22 1317.73 1216.03 1313.04 1205.03 1313.91 C 1198.13 1322.94 1203.06 1330.02 1213.32 1328.53 z" fill="rgb(9,39,63)" transform="translate(0,0)"></path>
<path d="M 1207.29 1310.71 C 1219.18 1306.58 1232.16 1312.84 1236.34 1324.71 C 1240.51 1336.58 1234.3 1349.59 1222.45 1353.82 C 1210.53 1358.06 1197.43 1351.81 1193.23 1339.87 C 1189.03 1327.94 1195.34 1314.86 1207.29 1310.71 z M 1213.32 1328.53 L 1214.45 1327.26 C 1223.22 1317.73 1216.03 1313.04 1205.03 1313.91 C 1198.13 1322.94 1203.06 1330.02 1213.32 1328.53 z" fill="rgb(241,108,57)" transform="translate(0,0)"></path>
<path d="M 877.569 1605.05 C 1036.63 1605.98 1197.73 1603.51 1356.38 1605.62 C 1356.86 1636.38 1356.6 1668.02 1356.69 1698.86 L 1311.5 1698.59 L 837.866 1698.14 C 837.693 1679.33 837.362 1669.24 834.013 1650.56 C 837.648 1644.42 841.036 1637.6 844.337 1631.23 C 846.083 1632.05 848.38 1633.09 850.224 1633.54 C 863.061 1636.65 875.277 1615.28 877.569 1605.05 z" fill="rgb(241,108,57)" transform="translate(0,0)"></path>
<path d="M 837.234 1706.99 L 1356.39 1706.73 L 1356.1 1789.68 L 1313.89 1789.83 L 795.76 1789.92 C 817.869 1767.38 835.036 1739.12 837.234 1706.99 z" fill="rgb(241,108,57)" transform="translate(0,0)"></path>
<path d="M 897.039 1517.11 L 1356.5 1517.25 L 1356.53 1598.3 C 1344.48 1598.5 1331.84 1598.28 1319.75 1598.23 L 876.844 1598.03 C 871.892 1592.07 870.368 1591.24 864.108 1586.95 C 872.642 1577.3 871.714 1571.64 866.777 1560.74 C 877.194 1546.42 887.284 1531.88 897.039 1517.11 z" fill="rgb(241,108,57)" transform="translate(0,0)"></path>
<path d="M 769.427 1577.48 C 772.571 1578.87 783.519 1586.64 787.035 1589.07 C 804.217 1600.95 820.742 1613.63 837.841 1625.71 C 833.428 1633.45 828.777 1641.1 825.459 1649.36 C 827.603 1674.72 833.12 1685.28 828.244 1713.64 C 822.758 1745.81 804.602 1774.45 777.841 1793.13 C 750.329 1812.16 723.165 1817.06 690.494 1811.29 C 668.016 1805.17 649.215 1793.7 635.746 1774.39 C 620.115 1751.7 614.166 1723.72 619.214 1696.64 C 625.43 1663.59 644.775 1634.47 672.831 1615.93 C 694.383 1601.44 729.124 1591.45 754.745 1596.48 C 761.232 1589.41 763.939 1585.53 769.427 1577.48 z M 681.571 1681.79 C 683.923 1683.33 683.741 1683.45 685.319 1685.62 C 696.008 1703.02 708.51 1671.83 696.954 1671.96 L 693.652 1672.01 C 691.956 1670.39 692.04 1670.51 690.837 1668.68 C 696.863 1661.87 712.316 1648.06 720.601 1646.42 C 737.157 1643.14 735.463 1620.66 721.6 1623.45 C 686.137 1630.57 663.274 1660.45 651.118 1692.9 C 651.035 1693.63 650.953 1694.35 650.87 1695.07 C 650.031 1701.37 649.269 1704.46 653.056 1709.67 L 653.606 1710.14 C 659.285 1709.51 662.262 1708.36 667.014 1710.38 C 667.871 1709.06 668.778 1707.76 669.464 1706.34 C 673.248 1698.38 677.25 1689.22 681.571 1681.79 z M 661.093 1740.46 C 665.656 1738.82 668.074 1733.83 666.538 1729.24 C 665.002 1724.64 660.074 1722.11 655.442 1723.54 C 652.352 1724.5 650.022 1727.05 649.351 1730.21 C 648.681 1733.38 649.777 1736.66 652.214 1738.78 C 654.651 1740.91 658.049 1741.55 661.093 1740.46 z" fill="rgb(11,168,174)" transform="translate(0,0)"></path>
<path d="M 651.118 1692.9 C 663.274 1660.45 686.137 1630.57 721.6 1623.45 C 735.463 1620.66 737.157 1643.14 720.601 1646.42 C 712.316 1648.06 696.863 1661.87 690.837 1668.68 C 692.04 1670.51 691.956 1670.39 693.652 1672.01 L 696.954 1671.96 C 708.51 1671.83 696.008 1703.02 685.319 1685.62 C 683.741 1683.45 683.923 1683.33 681.571 1681.79 C 677.25 1689.22 673.248 1698.38 669.464 1706.34 C 667.776 1703.61 666.919 1699.03 663.581 1698.33 C 657.678 1697.09 657.178 1694.59 651.118 1692.9 z M 691.743 1686.02 C 695.701 1681.64 701.259 1679.16 697.316 1674.62 C 693.378 1678.17 687.988 1681.4 691.743 1686.02 z M 716.796 1636.88 C 717.653 1631.15 718.521 1630.58 712.97 1629.83 C 712.475 1633.91 713.536 1634.81 716.796 1636.88 z" fill="rgb(254,254,254)" transform="translate(0,0)"></path>
<path d="M 681.571 1681.79 C 682.97 1678.17 687.925 1671.29 690.837 1668.68 C 692.04 1670.51 691.956 1670.39 693.652 1672.01 L 696.954 1671.96 C 708.51 1671.83 696.008 1703.02 685.319 1685.62 C 683.741 1683.45 683.923 1683.33 681.571 1681.79 z M 691.743 1686.02 C 695.701 1681.64 701.259 1679.16 697.316 1674.62 C 693.378 1678.17 687.988 1681.4 691.743 1686.02 z" fill="rgb(254,254,254)" transform="translate(0,0)"></path>
<path d="M 681.571 1681.79 C 682.97 1678.17 687.925 1671.29 690.837 1668.68 C 692.04 1670.51 691.956 1670.39 693.652 1672.01 C 693.373 1672.38 693.099 1672.76 692.815 1673.13 C 692.377 1673.7 691.773 1674.12 691.255 1674.62 C 687.931 1677.81 686.596 1681.29 685.319 1685.62 C 683.741 1683.45 683.923 1683.33 681.571 1681.79 z" fill="rgb(25,161,173)" transform="translate(0,0)"></path>
<path d="M 697.316 1674.62 C 701.259 1679.16 695.701 1681.64 691.743 1686.02 C 687.988 1681.4 693.378 1678.17 697.316 1674.62 z" fill="rgb(254,254,254)" fill-opacity="0.933333" transform="translate(0,0)"></path>
<path d="M 712.97 1629.83 C 718.521 1630.58 717.653 1631.15 716.796 1636.88 C 713.536 1634.81 712.475 1633.91 712.97 1629.83 z" fill="rgb(254,254,254)" fill-opacity="0.866667" transform="translate(0,0)"></path>
<path d="M 651.118 1692.9 C 657.178 1694.59 657.678 1697.09 663.581 1698.33 C 666.919 1699.03 667.776 1703.61 669.464 1706.34 C 668.778 1707.76 667.871 1709.06 667.014 1710.38 C 662.262 1708.36 659.285 1709.51 653.606 1710.14 L 653.056 1709.67 C 660.24 1705.34 655.251 1699.77 650.87 1695.07 C 650.953 1694.35 651.035 1693.63 651.118 1692.9 z" fill="rgb(254,254,254)" fill-opacity="0.819608" transform="translate(0,0)"></path>
<path d="M 650.87 1695.07 C 655.251 1699.77 660.24 1705.34 653.056 1709.67 C 649.269 1704.46 650.031 1701.37 650.87 1695.07 z" fill="rgb(254,254,254)" fill-opacity="0.521569" transform="translate(0,0)"></path>
<path d="M 653.606 1710.14 C 659.285 1709.51 662.262 1708.36 667.014 1710.38 C 661.307 1716.04 659.385 1715.86 653.606 1710.14 z" fill="rgb(254,254,254)" transform="translate(0,0)"></path>
<path d="M 812.117 1312.89 C 815.643 1296.42 831.117 1285.34 847.839 1287.31 C 864.561 1289.28 877.04 1303.65 876.646 1320.48 C 876.253 1337.32 863.116 1351.08 846.32 1352.27 C 829.525 1353.45 814.585 1341.66 811.833 1325.05 C 814.586 1324.16 815.971 1322.62 818.311 1324.06 C 820.445 1337.08 832.063 1346.41 845.244 1345.66 C 858.426 1344.92 868.926 1334.36 869.587 1321.17 C 870.248 1307.99 860.857 1296.43 847.816 1294.37 C 834.774 1292.32 822.282 1300.43 818.856 1313.18 C 817.807 1313.12 816.757 1313.08 815.707 1313.05 C 812.858 1312.99 814.636 1313.11 812.117 1312.89 z" fill="rgb(9,39,63)" transform="translate(0,0)"></path>
<path d="M 812.117 1312.89 C 814.636 1313.11 812.858 1312.99 815.707 1313.05 C 816.757 1313.08 817.807 1313.12 818.856 1313.18 C 817.903 1316.72 817.717 1320.43 818.311 1324.06 C 815.971 1322.62 814.586 1324.16 811.833 1325.05 C 811.164 1321.02 811.261 1316.89 812.117 1312.89 z" fill="rgb(12,32,57)" fill-opacity="0.807843" transform="translate(0,0)"></path>
<path d="M 1062.55 1176.2 C 1074.52 1160.68 1084.96 1141.36 1097.59 1124.91 C 1109.9 1133.25 1122.25 1141.51 1134.66 1149.7 C 1116.12 1176.12 1098.6 1203.42 1080.59 1230.22 L 973.657 1388.86 L 899.481 1497.98 C 886.278 1517.41 871.566 1537.75 859.439 1557.72 C 847.703 1548.57 835.609 1538.83 823.328 1530.53 C 839.126 1509.68 852.434 1488.53 867.257 1467.03 C 906.723 1409.51 945.699 1351.66 984.179 1293.48 L 1036.23 1216.22 C 1038.78 1212.4 1055.28 1188.07 1056.53 1185.14 C 1058.97 1182.04 1060.62 1179.61 1062.55 1176.2 z" fill="rgb(241,108,57)" transform="translate(0,0)"></path>
<path d="M 610.859 1447.02 C 659.367 1447.62 707.88 1447.75 756.39 1447.4 C 766.349 1453.48 805.082 1477.61 812.71 1463.81 C 812.818 1456.47 808.558 1453.24 803.621 1447.69 C 825.712 1447.37 847.806 1447.26 869.899 1447.35 C 866.005 1453.73 861.867 1460.16 857.879 1466.5 C 848.348 1481.16 838.476 1495.6 828.271 1509.81 C 800.768 1510.58 770.713 1509.82 743.009 1509.81 L 611.005 1510.11 L 610.859 1447.02 z" fill="rgb(11,168,174)" transform="translate(0,0)"></path>
<path d="M 1209.95 1447.02 L 1248.26 1446.92 C 1244.45 1453.04 1239.78 1458.11 1241.08 1465.13 C 1249.94 1476.86 1286.96 1452.73 1296.55 1447.03 C 1346.03 1447.76 1395.95 1446.95 1445.51 1447.19 C 1445.71 1459.46 1445.62 1471.96 1445.66 1484.25 L 1445.8 1509.69 C 1367.3 1509.31 1288.79 1509.41 1210.29 1509.99 C 1209.87 1489.3 1210.04 1467.77 1209.95 1447.02 z" fill="rgb(11,168,174)" transform="translate(0,0)"></path>
<path d="M 1377.12 1517.49 C 1389.59 1517.38 1402.06 1517.43 1414.53 1517.63 L 1414.42 1707.07 L 1414.6 1758.72 C 1414.65 1766.04 1415.18 1781.12 1414.36 1787.93 C 1411.64 1790.18 1411.82 1789.39 1407.25 1789.46 L 1364.58 1789.42 L 1364.63 1517.67 L 1377.12 1517.49 z" fill="rgb(241,108,57)" transform="translate(0,0)"></path>
<path d="M 1019.48 574.577 C 1050.82 571.079 1079.15 593.458 1083 624.763 C 1086.85 656.069 1064.79 684.644 1033.53 688.846 C 1012.99 691.606 992.557 683.116 980.021 666.617 C 967.486 650.117 964.784 628.153 972.949 609.108 C 981.113 590.063 998.883 576.874 1019.48 574.577 z M 1030.49 660.439 C 1046.42 657.647 1057.05 642.46 1054.23 626.541 C 1051.41 610.622 1036.2 600.016 1020.29 602.867 C 1004.42 605.71 993.842 620.868 996.656 636.746 C 999.471 652.623 1014.61 663.224 1030.49 660.439 z" fill="rgb(11,168,174)" transform="translate(0,0)"></path>
<path d="M 1018.95 595.484 C 1038.78 591.869 1057.82 604.955 1061.54 624.771 C 1065.26 644.587 1052.28 663.69 1032.49 667.523 C 1012.54 671.387 993.252 658.282 989.499 638.311 C 985.746 618.34 998.957 599.127 1018.95 595.484 z M 1030.49 660.439 C 1046.42 657.647 1057.05 642.46 1054.23 626.541 C 1051.41 610.622 1036.2 600.016 1020.29 602.867 C 1004.42 605.71 993.842 620.868 996.656 636.746 C 999.471 652.623 1014.61 663.224 1030.49 660.439 z" fill="rgb(9,39,63)" transform="translate(0,0)"></path>
<path d="M 624.442 787.751 C 642.586 785.078 646.189 782.153 663.917 794.992 C 676.97 804.444 689.787 815.856 702.561 825.694 C 693.686 834.633 684.882 843.67 677.225 853.709 C 671.7 860.554 666.453 867.619 661.497 874.888 C 657.997 880.094 654.01 887.306 650.754 892.846 C 636.832 885.073 622.732 877.334 608.933 869.357 C 585.376 855.74 571.026 842.33 582.719 814.162 C 587.994 806.99 588.898 806.006 595.415 800.14 C 605.219 793.966 613.737 791.732 624.442 787.751 z" fill="rgb(241,108,57)" transform="translate(0,0)"></path>
<path d="M 1409.15 785.05 C 1414.84 784.846 1420.04 787.096 1425.39 787.984 C 1449.34 791.949 1479.1 812.15 1471.78 839.986 C 1466.24 861.045 1431.03 877.33 1412.53 887.199 L 1402.26 892.804 C 1386.1 866.371 1371.78 846.708 1349.33 825.061 C 1366.72 810.268 1387.34 791.122 1409.15 785.05 z" fill="rgb(241,108,57)" transform="translate(0,0)"></path>
<path d="M 926.018 580.293 L 928.086 580.019 C 931.981 581.872 930.323 592.197 930.349 597.886 C 930.501 631.657 938.826 667.652 955.656 697.156 C 937.386 700.742 919.332 705.349 901.579 710.957 C 898.965 711.661 897.996 710.406 896.789 708.212 C 878.308 674.609 868.857 632.71 875.021 594.632 C 888.412 589.452 912.194 582.961 926.018 580.293 z" fill="rgb(241,108,57)" transform="translate(0,0)"></path>
<path d="M 1463.55 1134.87 C 1507.83 1161.44 1507.91 1219.62 1498.32 1264.41 C 1491.75 1263.02 1484.72 1261.16 1478.15 1259.56 C 1433.14 1247.86 1428.63 1241.58 1433.01 1194.56 C 1434.07 1183.15 1434.18 1164.97 1442.04 1155.91 C 1449.04 1147.84 1456.22 1145.43 1462.8 1135.97 L 1463.55 1134.87 z" fill="rgb(241,108,57)" transform="translate(0,0)"></path>
<path d="M 587.844 1133.86 C 597.659 1143.88 613.366 1156.07 615.677 1169.06 C 618.894 1187.14 625.5 1223.17 615.748 1239.09 C 608.357 1251.15 588.105 1253.46 575.222 1256.13 L 552.795 1260.9 C 541.048 1214.26 546.618 1163.83 587.844 1133.86 z" fill="rgb(241,108,57)" transform="translate(0,0)"></path>
<path d="M 1121.06 579.594 C 1141.17 584.455 1158.42 588.594 1177.54 596.918 C 1179.42 641.206 1175.97 672.722 1152.58 711.347 C 1149.64 711.609 1104.35 699.187 1096.19 697.371 C 1119.51 657.058 1122.33 624.867 1121.06 579.594 z" fill="rgb(241,108,57)" transform="translate(0,0)"></path>
<path d="M 1459.44 735.053 C 1470.49 738.51 1484.3 742.703 1495.82 742.813 C 1502.51 743.382 1506.34 743.829 1513.06 743.078 C 1523.01 743.41 1537.22 739.672 1546.61 736.984 C 1546.94 740.281 1547.22 743.582 1547.46 746.888 C 1550.41 790.94 1522.27 818.346 1479.38 820.389 C 1471.32 805.021 1463.79 793.086 1446.68 786.63 C 1444.4 785.414 1436.9 783.306 1435.54 781.037 C 1426.68 766.297 1451.35 742.958 1459.44 735.053 z" fill="rgb(241,108,57)" transform="translate(0,0)"></path>
<path d="M 1523 1002.15 C 1565.38 1025.5 1579.81 1066.27 1586.47 1111.64 C 1577.8 1112.69 1568.14 1114.41 1559.3 1115.63 C 1517.12 1121.55 1517.39 1105.71 1504.63 1069.64 C 1499.14 1054.11 1494.87 1032.5 1508.22 1019.85 C 1514.84 1013.57 1518.69 1010.71 1523 1002.15 z" fill="rgb(241,108,57)" transform="translate(0,0)"></path>
<path d="M 552.909 742.963 C 566.413 742.845 579.684 738.755 592.686 735.209 C 604.824 745.396 623.395 764.441 618.908 781.899 C 611.168 783.514 596.789 789.413 590.408 794.032 C 585.665 797.977 583.311 800.58 579.468 805.464 C 575.623 811.621 574.489 814.475 571.715 821.145 C 567.993 820.961 564.284 820.561 560.607 819.949 C 534.943 815.86 513.204 795.675 507.879 770.236 C 505.294 757.888 506.097 750.283 508.025 738.049 C 516.16 740.543 526.798 742.87 535.281 742.854 C 541.575 743.516 545.094 744.014 551.446 743.308 L 552.909 742.963 z" fill="rgb(241,108,57)" transform="translate(0,0)"></path>
<path d="M 529.095 1002.86 C 530.065 1003.52 529.886 1003.28 530.588 1004.26 C 539.951 1017.37 552.925 1022.7 551.563 1040.95 C 550.1 1060.56 541.366 1097.22 527.35 1111.51 C 520.212 1118.78 503.812 1117.52 494.595 1116.64 C 484.603 1115.51 476.3 1113.68 466.526 1111.4 C 469.278 1071.63 492.078 1021.64 529.095 1002.86 z" fill="rgb(241,108,57)" transform="translate(0,0)"></path>
<path d="M 687.56 1235.54 C 695.428 1241.06 708.97 1250.32 716.04 1256.08 C 731.271 1268.5 745.988 1303.43 747.691 1322.93 C 741.336 1335.82 731.905 1338.77 719.314 1344.16 C 709.625 1348.21 699.629 1351.79 689.77 1355.43 C 678.734 1333.39 671.054 1307.7 670.541 1282.98 C 670.116 1262.52 673.279 1250.57 687.56 1235.54 z" fill="rgb(241,108,57)" transform="translate(0,0)"></path>
<path d="M 653.509 1081 C 656.19 1081.99 662.516 1092.77 664.795 1096.12 C 676.045 1112.64 689.973 1130.41 703.897 1144.72 C 689.681 1153.33 659.875 1170.37 644.054 1171.39 C 635.196 1171.09 631.838 1169.94 624.186 1166.15 C 621.827 1160.99 619.372 1155.06 615.892 1151 C 608.549 1142.4 585.374 1126.72 593.064 1112.73 C 601.053 1098.2 638.228 1087.01 653.509 1081 z" fill="rgb(241,108,57)" transform="translate(0,0)"></path>
<path d="M 870.898 490.262 C 902.662 486.927 929.653 504.972 938.302 536.104 C 941.535 547.743 939.479 559.263 936.541 570.715 C 926.443 571.858 914.439 574.686 904.336 576.786 C 914.579 563.008 918.128 546.289 907.518 531.435 C 901.957 523.572 893.39 518.36 883.851 517.036 C 872.272 515.478 863.775 519.342 854.83 525.938 C 835.134 546.873 843.665 578.137 871.533 586.157 C 862.864 591.055 852.725 595.849 843.742 600.341 C 830.47 591.803 821.193 578.284 818.001 562.83 C 810.874 527.481 836.963 497.084 870.898 490.262 z" fill="rgb(241,108,57)" transform="translate(0,0)"></path>
<path d="M 1366.23 1238.12 C 1397.51 1259.44 1375.95 1326.24 1363.59 1353.7 C 1352.8 1348.59 1344.4 1344.83 1333.24 1340.51 C 1326.94 1338.07 1312.09 1333.2 1308.72 1327.83 C 1300.63 1314.97 1313.19 1294.23 1317.15 1282.76 C 1326.38 1255.99 1344.22 1251.51 1366.23 1238.12 z" fill="rgb(241,108,57)" transform="translate(0,0)"></path>
<path d="M 1114.12 570.261 C 1110.52 550.502 1109.51 534.236 1121.65 516.616 C 1131.04 502.939 1145.59 493.663 1161.95 490.916 C 1177.8 488.182 1194.08 491.894 1207.18 501.227 C 1220.6 510.613 1229.63 525.056 1232.18 541.235 C 1234.81 557.343 1231.69 572.299 1222.1 585.549 C 1218.07 591.176 1212.93 595.922 1207 599.5 C 1202.53 597.553 1184.67 589.441 1181.04 588.638 C 1181.92 587.557 1183.23 586.078 1183.96 584.936 C 1188.86 582.146 1192.91 579.973 1196.87 575.831 C 1215.75 556.082 1206.95 524.038 1180.08 517.79 C 1170.78 515.559 1160.98 517.336 1153.06 522.687 C 1145.15 527.942 1139.78 536.254 1138.25 545.627 C 1136.12 558.715 1140.61 567.011 1147.34 577.183 C 1136.37 574.847 1125.13 572.309 1114.12 570.261 z" fill="rgb(241,108,57)" transform="translate(0,0)"></path>
<path d="M 588.042 971.408 C 599.612 969.634 613.538 971.482 625.024 972.276 C 625.339 1002.47 626.941 1015.46 636.771 1044.12 C 620.232 1046.59 603.969 1047.61 587.249 1047.47 C 560.573 1045.88 566.109 1039.23 554.215 1017.9 C 548.047 1010.24 540.095 1007.71 536.507 997.878 C 528.531 976.019 573.406 972.933 588.042 971.408 z" fill="rgb(241,108,57)" transform="translate(0,0)"></path>
<path d="M 1401.65 1081.72 L 1402.52 1082.06 C 1416.41 1087.53 1454.63 1101 1459.67 1114.51 C 1465.91 1131.24 1442.12 1142.2 1434.14 1153.29 C 1430.88 1157.83 1429.25 1162.25 1427.16 1167.22 C 1421.42 1170.04 1420.27 1170.59 1413.95 1171.47 C 1397.58 1170.78 1367.57 1156.35 1352.64 1148 C 1371 1130.16 1387.63 1103.37 1401.65 1081.72 z" fill="rgb(241,108,57)" transform="translate(0,0)"></path>
<path d="M 1440.52 972.355 C 1452.69 970.003 1509.57 973.536 1515.97 988.47 C 1520.99 1000.19 1503.52 1012.8 1497.9 1020 C 1495.17 1023.5 1492.24 1034.16 1489.61 1039.29 C 1473.96 1053.79 1439.48 1045.05 1418.56 1043.73 C 1428.51 1017.18 1429.8 1001.7 1428.89 974.242 C 1433.72 973.166 1435.75 973.006 1440.52 972.355 z" fill="rgb(241,108,57)" transform="translate(0,0)"></path>
<path d="M 1175.91 997.813 C 1192.08 1008 1207.66 1019.42 1224.16 1029.78 C 1209.06 1048.24 1182.68 1088.44 1169.94 1108.17 C 1166.46 1107.4 1127.78 1079.18 1122.07 1075.13 C 1140.33 1050.45 1157.53 1021.17 1175.91 997.813 z" fill="rgb(11,168,174)" transform="translate(0,0)"></path>
<path d="M 698.11 1517.93 C 739.901 1517.5 781.827 1518.55 823.656 1517.4 C 820.078 1522.21 818.121 1526.19 812.285 1526.98 C 804.497 1528.03 799.698 1532.73 794.12 1537.94 C 789.513 1537.94 786.357 1536 782.179 1533.99 C 776.545 1534.04 773.883 1537.49 770.04 1541.38 C 763.89 1548.63 759.432 1554.22 754.616 1562.38 C 757.132 1565.82 760.132 1568.95 763.005 1572.12 C 759.395 1577.86 755.762 1582.48 751.634 1587.85 C 727.984 1587.42 720.08 1586.85 698.049 1594.99 C 698.242 1569.3 698.263 1543.62 698.11 1517.93 z" fill="rgb(241,108,57)" transform="translate(0,0)"></path>
<path d="M 736.087 1178 L 738.496 1180.12 C 740.747 1180.4 743.315 1180.69 745.227 1181.97 C 761.74 1193 777.872 1203.15 795.104 1212.98 C 783.94 1227.15 764.972 1252.29 749.161 1259.98 C 746.405 1260.19 740.496 1260.35 738.211 1259.57 C 729.914 1256.74 685.376 1229.16 688.861 1219.87 C 694.158 1205.76 723.387 1188.26 736.087 1178 z" fill="rgb(241,108,57)" transform="translate(0,0)"></path>
<path d="M 640.991 1517.99 C 657.541 1518.15 674.399 1517.96 690.978 1517.95 L 690.94 1598.18 C 683.63 1600.34 675.663 1604.29 669.018 1607.99 C 657.339 1616.17 651.284 1621.89 641.368 1632.2 L 640.991 1517.99 z" fill="rgb(241,108,57)" transform="translate(0,0)"></path>
<path d="M 1185.36 598.884 C 1190.23 600.783 1195.72 603.875 1200.43 606.333 C 1204.57 614.516 1212.26 630.411 1214.06 639.069 C 1219.73 666.274 1200.44 699.347 1187.01 721.399 L 1185.96 722.385 C 1182.52 723.002 1164.63 715.569 1160.28 713.924 C 1184.72 676.594 1186 641.411 1185.36 598.884 z" fill="rgb(11,168,174)" transform="translate(0,0)"></path>
<path d="M 863.884 600.923 L 864.678 601.03 C 866.939 603.195 864.669 627.218 865.577 634.381 C 869.476 665.138 876.111 687.237 891.503 714.05 C 881.719 717.134 874.755 719.719 865.258 723.531 C 853.084 702.027 839.388 677.933 836.587 653.01 C 835.055 639.377 843.916 619.046 850.663 607.343 C 854.822 605.003 859.533 602.948 863.884 600.923 z" fill="rgb(11,168,174)" transform="translate(0,0)"></path>
<path d="M 1055.47 573.172 C 1074.27 573.166 1093.03 574.794 1111.55 578.037 C 1119.55 614.587 1106.29 664.748 1087.08 696.269 L 1077.77 694.931 C 1070.27 693.576 1060.57 692.717 1052.85 691.819 C 1095.08 671.836 1104.47 620.168 1072.66 585.924 C 1067.66 580.545 1061.65 577.043 1055.47 573.172 z" fill="rgb(11,168,174)" transform="translate(0,0)"></path>
<path d="M 781.649 1541.59 C 810.318 1561.06 842.027 1582.35 870.24 1602.19 C 865.812 1612.2 861.548 1618.93 853.815 1626.53 C 838.892 1616.32 824.153 1605.41 809.268 1595.06 C 794.074 1584.49 778.045 1574.37 764.342 1562 C 770.172 1554.51 775.35 1548.63 781.649 1541.59 z" fill="rgb(11,168,174)" transform="translate(0,0)"></path>
<path d="M 938.857 577.191 C 958.005 575.986 974.698 573.118 994.544 572.857 C 983.659 579.828 974.815 588.156 968.528 599.571 C 959.942 615.289 957.946 633.773 962.977 650.962 C 968.233 668.664 978.471 680.17 994.343 688.853 L 994.939 692.567 C 986.797 692.179 971.659 694.628 963.162 695.916 C 940.705 649.91 938.305 626.811 938.857 577.191 z" fill="rgb(11,168,174)" transform="translate(0,0)"></path>
<path d="M 786.424 684.619 C 789.426 686.926 790.363 691.015 791.8 694.567 C 799.148 712.727 808.894 728.202 821.395 743.293 C 806.073 750.614 797.261 754.487 782.478 764.177 L 773.043 770.422 C 762.637 755.461 759.049 747.987 750.772 732.499 C 760.294 717.114 773.66 697.37 786.424 684.619 z" fill="rgb(11,168,174)" transform="translate(0,0)"></path>
<path d="M 1264.14 683.458 C 1274.68 692.492 1292.94 718.492 1300.28 730.575 C 1293.58 744.752 1287.93 755.734 1278.68 768.693 C 1276.02 766.939 1273.34 765.208 1270.65 763.5 C 1256.41 754.541 1243.45 749.225 1228.96 741.857 C 1248.6 721.333 1252.94 708.311 1264.14 683.458 z" fill="rgb(11,168,174)" transform="translate(0,0)"></path>
<path d="M 1223.33 647.445 C 1233.14 653.834 1249.72 667.964 1258.05 676.344 C 1250.62 698.589 1240.55 718.299 1224.76 735.802 C 1223.01 737.342 1222.05 739.128 1219.56 737.907 C 1210.77 733.603 1201.6 729.221 1192.4 725.829 C 1211.24 697.041 1218.3 681.56 1223.33 647.445 z" fill="rgb(11,168,174)" transform="translate(0,0)"></path>
<path d="M 826.131 648.761 C 827.73 649.411 827.666 649.42 827.967 651.444 C 831.917 678.018 844.198 703.649 858.73 725.993 L 828.526 739.268 C 812.197 719.138 802.15 702.253 793.99 677.328 C 804.132 667.182 814.865 657.643 826.131 648.761 z" fill="rgb(11,168,174)" transform="translate(0,0)"></path>
<path d="M 1196.56 954.5 C 1202.02 956.226 1248.29 989.385 1254.25 994.812 C 1249.49 1002.61 1238.98 1019.02 1232.92 1025.8 C 1228.33 1022.98 1223.84 1020.02 1219.44 1016.92 C 1204.69 1006.4 1189.59 996.866 1174.7 986.388 C 1180.94 976.573 1189.38 963.511 1196.56 954.5 z" fill="rgb(11,168,174)" transform="translate(0,0)"></path>
<path d="M 1111.9 1079.48 C 1120.29 1083.58 1164.75 1113.78 1171.42 1120.05 C 1166.12 1129.74 1158.33 1141.66 1151.52 1150.28 C 1132.99 1139.44 1108.02 1122.78 1091.12 1109.41 C 1097.44 1098.68 1104.8 1089.61 1111.9 1079.48 z" fill="rgb(11,168,174)" transform="translate(0,0)"></path>
<path d="M 1305.21 741.592 C 1315.88 755.59 1323.01 785.61 1326.02 802.846 C 1322.42 800.009 1318.79 797.22 1315.12 794.48 C 1305.8 787.311 1295.98 780.641 1286.36 773.881 C 1293.17 763.435 1299.46 752.659 1305.21 741.592 z" fill="rgb(241,108,57)" transform="translate(0,0)"></path>
<path d="M 725.575 803.177 L 727.739 793.485 C 731.51 777.229 738.12 756.224 745.708 741.357 C 751.508 750.92 760.343 765.685 765.43 775.383 C 762.966 776.949 751.155 784.763 749.087 785.646 L 746.847 787.844 C 740.685 791.516 731.434 798.674 725.575 803.177 z" fill="rgb(241,108,57)" transform="translate(0,0)"></path>
<path d="M 810.984 1535.08 C 826.392 1542.78 839.649 1553.33 853.743 1563.27 C 861.257 1568.57 865.993 1570.61 860.046 1580.01 C 859 1581.66 858.133 1583.68 856.077 1582.09 C 837.682 1569.19 818.417 1555.68 799.517 1543.57 C 803.447 1540.45 806.9 1537.94 810.984 1535.08 z" fill="rgb(11,168,174)" transform="translate(0,0)"></path>
<path d="M 677.225 853.709 C 682.765 851.431 683.217 851.552 689.117 851.494 C 683.748 858.744 673.989 871.813 668.458 878.518 C 666.866 876.029 668.475 874.273 666.925 873.312 C 663.848 874.063 664.894 877.69 661.497 874.888 C 666.453 867.619 671.7 860.554 677.225 853.709 z" fill="rgb(9,39,63)" fill-opacity="0.882353" transform="translate(0,0)"></path>
<path d="M 590.408 794.032 C 596.789 789.413 611.168 783.514 618.908 781.899 L 618.687 783.917 C 618.611 784.337 618.535 784.756 618.46 785.176 C 616.442 783.517 606.799 787.715 606.691 788.8 C 611.056 792.707 615.791 787.312 624.442 787.751 C 613.737 791.732 605.219 793.966 595.415 800.14 C 592.954 797.549 592.472 797.029 590.408 794.032 z" fill="rgb(12,32,57)" fill-opacity="0.984314" transform="translate(0,0)"></path>
<path d="M 579.468 805.464 C 583.311 800.58 585.665 797.977 590.408 794.032 C 592.472 797.029 592.954 797.549 595.415 800.14 C 588.898 806.006 587.994 806.99 582.719 814.162 C 580.006 810.25 580.61 810.204 579.468 805.464 z" fill="rgb(9,39,63)" fill-opacity="0.835294" transform="translate(0,0)"></path>
<path d="M 578.393 605.599 C 574.601 632.485 563.452 603.718 574.713 591.887 C 574.58 594.089 574.393 595.499 573.33 597.428 C 582.464 598.003 576.929 593.856 581.689 594.104 C 580.605 597.378 579.531 598.588 578.579 602.226 C 575.645 594.976 566.742 611.081 578.393 605.599 z" fill="rgb(10,25,45)" fill-opacity="0.980392" transform="translate(0,0)"></path>
<path d="M 746.847 787.844 L 749.087 785.646 C 751.812 787.582 752.684 789.387 755.066 791.718 C 752.701 793.559 750.438 795.094 747.984 796.797 C 744.502 794.352 745.948 791.602 746.847 787.844 z" fill="rgb(12,32,57)" fill-opacity="0.815686" transform="translate(0,0)"></path>
<path d="M 1056.53 1185.14 C 1049.16 1180.57 1056.44 1173.38 1062.55 1176.2 C 1060.62 1179.61 1058.97 1182.04 1056.53 1185.14 z" fill="rgb(9,39,63)" fill-opacity="0.917647" transform="translate(0,0)"></path>
<path d="M 1120.82 705.803 C 1126.5 706.264 1132.01 705.424 1130.66 711.756 C 1124.02 711.154 1120.14 712.434 1120.82 705.803 z" fill="rgb(12,32,57)" fill-opacity="0.356863" transform="translate(0,0)"></path>
<path d="M 535.281 742.854 C 535.857 739.09 545.384 740.312 548.151 740.38 L 551.446 743.308 C 545.094 744.014 541.575 743.516 535.281 742.854 z" fill="rgb(12,32,57)" fill-opacity="0.533333" transform="translate(0,0)"></path>
<path d="M 1495.82 742.813 C 1501 739.069 1507.76 739.934 1513.06 743.078 C 1506.34 743.829 1502.51 743.382 1495.82 742.813 z" fill="rgb(12,32,57)" fill-opacity="0.760784" transform="translate(0,0)"></path>
<path d="M 578.393 605.599 C 566.742 611.081 575.645 594.976 578.579 602.226 L 578.393 605.599 z" fill="rgb(9,39,63)" fill-opacity="0.866667" transform="translate(0,0)"></path>
<path d="M 1183.96 584.936 C 1183.23 586.078 1181.92 587.557 1181.04 588.638 C 1180.42 588.294 1178.56 587.596 1178.66 586.565 C 1179.36 585.691 1180.98 585.671 1181.99 585.477 L 1183.96 584.936 z" fill="rgb(241,108,57)" fill-opacity="0.988235" transform="translate(0,0)"></path>
<path d="M 994.343 688.853 C 998.048 690.724 999.803 691.241 994.939 692.567 L 994.343 688.853 z" fill="rgb(25,161,173)" transform="translate(0,0)"></path>
<path d="M 548.151 740.38 C 550.603 740.911 552.137 740.605 552.909 742.963 L 551.446 743.308 L 548.151 740.38 z" fill="rgb(12,32,57)" fill-opacity="0.666667" transform="translate(0,0)"></path>
<path d="M 1154.34 278.211 C 1197.5 272.865 1236.84 303.489 1242.25 346.646 C 1247.66 389.804 1217.1 429.189 1173.95 434.661 C 1130.71 440.144 1091.22 409.501 1085.8 366.254 C 1080.38 323.006 1111.08 283.567 1154.34 278.211 z M 1171.5 427.773 C 1210.48 423.733 1238.95 389.057 1235.32 350.031 C 1231.69 311.004 1197.31 282.178 1158.25 285.402 C 1132.61 287.518 1110.09 303.24 1099.27 326.574 C 1088.45 349.908 1090.99 377.256 1105.93 398.192 C 1120.88 419.128 1145.91 430.424 1171.5 427.773 z" fill="rgb(9,39,63)" transform="translate(0,0)"></path>
<path d="M 1587.55 822.507 C 1625.81 815.771 1662.28 841.378 1668.93 879.659 C 1675.59 917.94 1649.9 954.351 1611.61 960.922 C 1573.43 967.472 1537.15 941.881 1530.52 903.718 C 1523.89 865.554 1549.4 829.224 1587.55 822.507 z M 1605.62 954.873 C 1640.59 951.556 1666.22 920.466 1662.8 885.505 C 1659.38 850.544 1628.22 825.006 1593.27 828.525 C 1558.46 832.03 1533.05 863.038 1536.45 897.857 C 1539.85 932.676 1570.79 958.176 1605.62 954.873 z" fill="rgb(9,39,63)" transform="translate(0,0)"></path>
<path d="M 1593.27 828.525 C 1628.22 825.006 1659.38 850.544 1662.8 885.505 C 1666.22 920.466 1640.59 951.556 1605.62 954.873 C 1570.79 958.176 1539.85 932.676 1536.45 897.857 C 1533.05 863.038 1558.46 832.03 1593.27 828.525 z M 1559.4 878.603 C 1568.28 863.947 1576.51 852.651 1593.59 847.006 C 1596.54 846.033 1593.74 842.198 1592.91 840.565 C 1591.53 837.832 1586.82 839.027 1584.26 839.186 C 1575.13 842.95 1568.59 847.534 1561.87 854.486 C 1556.15 860.401 1548.68 868.338 1551.47 877.107 C 1552.46 880.235 1557.09 881.313 1559.4 878.603 z" fill="rgb(241,108,57)" transform="translate(0,0)"></path>
<path d="M 431.048 848.971 C 465.581 843.896 497.694 867.762 502.795 902.291 C 507.896 936.82 484.054 968.952 449.529 974.078 C 414.967 979.21 382.794 955.338 377.688 920.772 C 372.582 886.207 396.478 854.052 431.048 848.971 z M 451.51 966.739 C 481.869 960.605 501.561 931.088 495.566 900.701 C 489.571 870.315 460.143 850.489 429.73 856.346 C 399.12 862.241 379.138 891.9 385.172 922.482 C 391.206 953.065 420.956 972.912 451.51 966.739 z" fill="rgb(9,39,63)" transform="translate(0,0)"></path>
<path d="M 483.995 1452.62 C 514.819 1448.1 543.526 1469.26 548.334 1500.04 C 553.143 1530.82 532.257 1559.73 501.526 1564.83 C 470.377 1570 440.993 1548.77 436.119 1517.57 C 431.246 1486.38 452.754 1457.2 483.995 1452.62 z M 459.07 1504.49 C 463.481 1498 469.184 1485.55 475.613 1482.28 C 481.208 1479.43 504.196 1467.71 482.65 1465.02 C 469.325 1469.86 458.343 1477.5 452.126 1490.56 C 448.103 1499 448.546 1504.81 459.07 1504.49 z" fill="rgb(9,39,63)" transform="translate(0,0)"></path>
<path d="M 483.482 1459.31 C 511.011 1454.33 537.319 1472.75 542.066 1500.32 C 546.812 1527.89 528.177 1554.04 500.569 1558.56 C 473.284 1563.02 447.503 1544.65 442.813 1517.4 C 438.122 1490.16 456.275 1464.22 483.482 1459.31 z M 459.07 1504.49 C 463.481 1498 469.184 1485.55 475.613 1482.28 C 481.208 1479.43 504.196 1467.71 482.65 1465.02 C 469.325 1469.86 458.343 1477.5 452.126 1490.56 C 448.103 1499 448.546 1504.81 459.07 1504.49 z" fill="rgb(11,168,174)" transform="translate(0,0)"></path>
<path d="M 1556.59 1341.36 C 1586.48 1336.44 1614.66 1356.81 1619.36 1386.74 C 1624.06 1416.66 1603.49 1444.69 1573.53 1449.17 C 1543.87 1453.61 1516.19 1433.29 1511.54 1403.67 C 1506.89 1374.05 1527.01 1346.22 1556.59 1341.36 z M 1573.17 1442.5 C 1599.04 1438.26 1616.64 1413.93 1612.57 1388.03 C 1608.5 1362.12 1584.28 1344.37 1558.36 1348.27 C 1532.18 1352.2 1514.22 1376.69 1518.33 1402.84 C 1522.44 1428.98 1547.05 1446.78 1573.17 1442.5 z" fill="rgb(9,39,63)" transform="translate(0,0)"></path>
<path d="M 843.64 275.376 C 871.904 272.399 897.234 292.889 900.227 321.151 C 903.221 349.413 882.746 374.755 854.485 377.765 C 826.202 380.777 800.835 360.282 797.838 331.996 C 794.842 303.711 815.353 278.356 843.64 275.376 z M 854.485 371.079 C 879.203 368.058 896.72 345.467 893.488 320.776 C 890.257 296.084 867.518 278.761 842.855 282.202 C 818.487 285.602 801.416 308.01 804.608 332.406 C 807.801 356.802 830.063 374.063 854.485 371.079 z" fill="rgb(9,39,63)" transform="translate(0,0)"></path>
<path d="M 842.855 282.202 C 867.518 278.761 890.257 296.084 893.488 320.776 C 896.72 345.467 879.203 368.058 854.485 371.079 C 830.063 374.063 807.801 356.802 804.608 332.406 C 801.416 308.01 818.487 285.602 842.855 282.202 z M 820.94 322.657 L 828.565 312.185 C 837.235 300.296 840.22 300.784 851.698 293.335 C 855.578 290.816 849.714 284.843 842.548 284.971 C 830.289 291.958 819.289 302.147 812.633 314.65 C 811.341 317.077 816.43 322.709 820.94 322.657 z" fill="rgb(241,108,57)" transform="translate(0,0)"></path>
<path d="M 408.455 1239.76 C 434.016 1234.82 458.744 1251.52 463.717 1277.08 C 468.69 1302.63 452.029 1327.38 426.484 1332.39 C 400.883 1337.42 376.065 1320.71 371.082 1295.1 C 366.098 1269.5 382.84 1244.7 408.455 1239.76 z M 397.752 1250.32 C 359.731 1272.5 377.897 1326.91 417 1327.27 C 428.099 1327.39 438.761 1322.94 446.497 1314.98 C 454.166 1307.12 458.33 1296.48 458.042 1285.5 C 457.599 1258.88 434.77 1243.79 409.764 1245.21 C 405.175 1246.7 401.961 1248.06 397.752 1250.32 z" fill="rgb(9,39,63)" transform="translate(0,0)"></path>
<path d="M 409.764 1245.21 C 434.77 1243.79 457.599 1258.88 458.042 1285.5 C 458.33 1296.48 454.166 1307.12 446.497 1314.98 C 438.761 1322.94 428.099 1327.39 417 1327.27 C 377.897 1326.91 359.731 1272.5 397.752 1250.32 C 401.961 1248.06 405.175 1246.7 409.764 1245.21 z M 395.224 1259.83 C 392.084 1263.99 383.244 1269.84 384.133 1276.46 C 386.111 1291.19 397.903 1277.34 399.6 1269.86 C 405.449 1266.03 414.379 1263.6 417.024 1259.37 C 417.902 1262.04 425.511 1261.38 422.843 1252.85 L 422.547 1251.61 C 413.178 1250.2 410.793 1248.66 403.668 1254.67 C 400.871 1256.58 398.193 1258.18 395.224 1259.83 z" fill="rgb(241,108,57)" transform="translate(0,0)"></path>
<path d="M 403.668 1254.67 C 404.766 1255.78 405.88 1256.88 407.01 1257.96 C 400.603 1262.04 399.707 1262.71 399.6 1269.86 C 397.903 1277.34 386.111 1291.19 384.133 1276.46 C 383.244 1269.84 392.084 1263.99 395.224 1259.83 C 398.193 1258.18 400.871 1256.58 403.668 1254.67 z" fill="rgb(254,254,254)" fill-opacity="0.0196078" transform="translate(0,0)"></path>
<path d="M 407.01 1257.96 C 412.397 1258 412.101 1257.74 417.024 1259.37 C 414.379 1263.6 405.449 1266.03 399.6 1269.86 C 399.707 1262.71 400.603 1262.04 407.01 1257.96 z" fill="rgb(252,246,247)" fill-opacity="0.894118" transform="translate(0,0)"></path>
<path d="M 1010.66 256.609 C 1031.66 252.487 1052.01 266.171 1056.12 287.167 C 1060.23 308.162 1046.54 328.511 1025.54 332.608 C 1004.56 336.701 984.23 323.018 980.124 302.041 C 976.019 281.063 989.689 260.727 1010.66 256.609 z M 1024.46 325.957 C 1041.66 322.515 1052.83 305.801 1049.44 288.591 C 1046.04 271.381 1029.35 260.169 1012.13 263.526 C 994.852 266.895 983.593 283.653 987.004 300.923 C 990.415 318.193 1007.2 329.411 1024.46 325.957 z" fill="rgb(9,39,63)" transform="translate(0,0)"></path>
<path d="M 957.964 372.755 C 977.238 370.556 994.676 384.32 997.014 403.578 C 999.352 422.836 985.715 440.373 966.474 442.85 C 947.036 445.352 929.279 431.544 926.917 412.088 C 924.555 392.632 938.492 374.976 957.964 372.755 z M 958.745 397.948 C 966.832 394.741 972.092 383.707 956.719 382.052 C 941.674 386.954 947.304 395.187 958.745 397.948 z" fill="rgb(9,39,63)" transform="translate(0,0)"></path>
<path d="M 954.936 380.17 C 964.947 377.615 975.558 380.64 982.717 388.09 C 989.877 395.539 992.478 406.262 989.528 416.164 C 986.579 426.066 978.533 433.617 968.465 435.934 C 953.15 439.458 937.851 430.008 934.146 414.737 C 930.441 399.466 939.709 384.055 954.936 380.17 z M 958.745 397.948 C 966.832 394.741 972.092 383.707 956.719 382.052 C 941.674 386.954 947.304 395.187 958.745 397.948 z" fill="rgb(11,168,174)" transform="translate(0,0)"></path>
<path d="M 1631.26 1240.65 C 1650.27 1239.74 1666.48 1254.27 1667.64 1273.27 C 1668.81 1292.26 1654.49 1308.67 1635.51 1310.08 C 1623.01 1311.01 1610.97 1305.14 1604.01 1294.72 C 1597.04 1284.3 1596.22 1270.93 1601.86 1259.74 C 1607.51 1248.54 1618.74 1241.25 1631.26 1240.65 z M 1623.82 1248.72 C 1622.52 1249.16 1621.25 1249.7 1620.03 1250.33 C 1619.53 1256.89 1616.91 1267.9 1632.48 1262.06 C 1635.87 1259.21 1637.63 1256.84 1634.91 1253.11 C 1631.25 1248.06 1624.56 1251.77 1623.82 1248.72 z" fill="rgb(9,39,63)" transform="translate(0,0)"></path>
<path d="M 1623.82 1248.72 C 1638.25 1243.78 1653.99 1251.14 1659.45 1265.38 C 1664.91 1279.61 1658.12 1295.62 1644.1 1301.59 C 1630.07 1307.56 1613.83 1301.36 1607.35 1287.56 C 1600.87 1273.77 1606.47 1257.31 1620.03 1250.33 C 1619.53 1256.89 1616.91 1267.9 1632.48 1262.06 C 1635.87 1259.21 1637.63 1256.84 1634.91 1253.11 C 1631.25 1248.06 1624.56 1251.77 1623.82 1248.72 z" fill="rgb(241,108,57)" transform="translate(0,0)"></path>
<path d="M 1536.45 1490.5 C 1553.63 1489.61 1568.33 1502.7 1569.45 1519.87 C 1570.56 1537.03 1557.66 1551.91 1540.51 1553.24 C 1529.22 1554.12 1518.32 1548.86 1511.99 1539.46 C 1505.66 1530.06 1504.88 1517.98 1509.94 1507.85 C 1515.01 1497.71 1525.13 1491.08 1536.45 1490.5 z M 1513.41 1521.01 C 1513.13 1528.28 1516.08 1535.31 1521.47 1540.19 C 1526.86 1545.08 1534.14 1547.33 1541.35 1546.34 C 1550.14 1545.12 1557.6 1539.26 1560.86 1531 C 1564.12 1522.75 1562.67 1513.37 1557.08 1506.48 C 1551.48 1499.59 1542.6 1496.24 1533.85 1497.74 C 1522.39 1499.69 1513.87 1509.4 1513.41 1521.01 z" fill="rgb(9,39,63)" transform="translate(0,0)"></path>
<path d="M 1039.22 454.512 C 1055.16 451.026 1070.91 461.092 1074.45 477.022 C 1077.99 492.951 1067.97 508.74 1052.06 512.328 C 1036.06 515.934 1020.19 505.863 1016.63 489.86 C 1013.08 473.858 1023.2 458.014 1039.22 454.512 z M 1050.74 505.616 C 1058.7 503.752 1065.04 497.76 1067.35 489.923 C 1069.65 482.087 1067.57 473.615 1061.9 467.737 C 1056.23 461.859 1047.83 459.482 1039.92 461.511 C 1027.86 464.604 1020.54 476.829 1023.51 488.919 C 1026.48 501.01 1038.62 508.457 1050.74 505.616 z" fill="rgb(9,39,63)" transform="translate(0,0)"></path>
<path d="M 1645.91 725.639 C 1661.49 724.586 1675.01 736.248 1676.26 751.805 C 1677.51 767.362 1666.02 781.031 1650.48 782.475 C 1640.25 783.425 1630.3 778.8 1624.43 770.368 C 1618.57 761.937 1617.69 751.001 1622.14 741.742 C 1626.58 732.483 1635.67 726.332 1645.91 725.639 z M 1654.43 775.471 C 1666.2 771.771 1672.7 759.186 1668.9 747.446 C 1665.1 735.707 1652.46 729.312 1640.76 733.207 C 1629.18 737.057 1622.88 749.515 1626.63 761.118 C 1630.39 772.72 1642.79 779.127 1654.43 775.471 z" fill="rgb(9,39,63)" transform="translate(0,0)"></path>
<path d="M 1640.76 733.207 C 1652.46 729.312 1665.1 735.707 1668.9 747.446 C 1672.7 759.186 1666.2 771.771 1654.43 775.471 C 1642.79 779.127 1630.39 772.72 1626.63 761.118 C 1622.88 749.515 1629.18 737.057 1640.76 733.207 z M 1646.5 749.12 C 1649.06 748.085 1650.86 745.744 1651.19 743.005 C 1651.52 740.267 1650.35 737.563 1648.11 735.942 C 1645.88 734.322 1642.95 734.041 1640.45 735.208 C 1636.72 736.948 1635.06 741.342 1636.7 745.115 C 1638.34 748.887 1642.69 750.663 1646.5 749.12 z" fill="rgb(11,168,174)" transform="translate(0,0)"></path>
<path d="M 1645.52 1015.42 C 1659.31 1013.99 1671.65 1024.05 1673.03 1037.85 C 1674.42 1051.65 1664.32 1063.96 1650.52 1065.29 C 1636.77 1066.63 1624.54 1056.59 1623.16 1042.85 C 1621.78 1029.11 1631.78 1016.84 1645.52 1015.42 z" fill="rgb(9,39,63)" transform="translate(0,0)"></path>
<path d="M 1644.84 1022.58 C 1654.67 1020.69 1664.2 1027.02 1666.26 1036.81 C 1668.33 1046.6 1662.17 1056.25 1652.42 1058.48 C 1647.04 1059.72 1641.39 1058.47 1637.03 1055.08 C 1632.68 1051.69 1630.08 1046.52 1629.96 1041 C 1629.77 1032.05 1636.05 1024.27 1644.84 1022.58 z" fill="rgb(241,108,57)" transform="translate(0,0)"></path>
<path d="M 509.227 1354.99 C 521.753 1353.86 532.892 1362.93 534.329 1375.42 C 535.766 1387.92 526.975 1399.28 514.521 1401.02 C 506.185 1402.19 497.871 1398.75 492.802 1392.03 C 487.733 1385.31 486.705 1376.37 490.117 1368.68 C 493.529 1360.98 500.844 1355.74 509.227 1354.99 z" fill="rgb(9,39,63)" transform="translate(0,0)"></path>
<path d="M 508.053 1361.13 C 531.202 1361.94 536.57 1388.33 513.569 1395.08 C 492.398 1392.81 485.506 1372.16 508.053 1361.13 z" fill="rgb(11,168,174)" transform="translate(0,0)"></path>
<path d="M 400.256 743.541 C 412.442 740.448 424.832 747.805 427.949 759.985 C 431.066 772.166 423.733 784.57 411.558 787.71 C 399.351 790.859 386.905 783.502 383.78 771.288 C 380.654 759.075 388.036 746.643 400.256 743.541 z" fill="rgb(9,39,63)" transform="translate(0,0)"></path>
<path d="M 400.21 750.561 C 408.48 747.454 417.708 751.602 420.875 759.849 C 424.041 768.097 419.96 777.355 411.735 780.58 C 403.426 783.839 394.053 779.707 390.854 771.375 C 387.656 763.043 391.855 753.7 400.21 750.561 z" fill="rgb(241,108,57)" transform="translate(0,0)"></path>
<path d="M 386.168 1128.29 C 395.985 1126.85 405.165 1133.48 406.898 1143.24 C 408.631 1153.01 402.29 1162.39 392.58 1164.42 C 387.177 1165.55 381.552 1164.19 377.264 1160.71 C 372.976 1157.24 370.479 1152.02 370.465 1146.5 C 370.441 1137.37 377.133 1129.61 386.168 1128.29 z" fill="rgb(9,39,63)" transform="translate(0,0)"></path>
<path d="M 384.986 1135.58 C 388.942 1134.25 393.308 1135.18 396.375 1138.01 C 399.442 1140.84 400.72 1145.12 399.71 1149.17 C 398.699 1153.22 395.56 1156.39 391.523 1157.45 C 385.568 1159.01 379.449 1155.57 377.686 1149.67 C 375.923 1143.77 379.152 1137.54 384.986 1135.58 z" fill="rgb(241,108,57)" transform="translate(0,0)"></path>
<path d="M 567.71 1594.49 C 577.449 1592.19 587.221 1598.16 589.632 1607.87 C 592.043 1617.58 586.196 1627.42 576.515 1629.95 C 570.149 1631.61 563.38 1629.72 558.795 1625 C 554.21 1620.28 552.517 1613.46 554.362 1607.15 C 556.207 1600.83 561.306 1596 567.71 1594.49 z" fill="rgb(9,39,63)" transform="translate(0,0)"></path>
<path d="M 571.426 1600.73 C 577.62 1600.51 582.884 1605.22 583.353 1611.4 C 583.823 1617.58 579.331 1623.03 573.174 1623.75 C 568.963 1624.24 564.821 1622.39 562.383 1618.92 C 559.944 1615.45 559.6 1610.93 561.487 1607.13 C 563.374 1603.34 567.189 1600.88 571.426 1600.73 z" fill="rgb(241,108,57)" transform="translate(0,0)"></path>
<path d="M 1647.53 1140.4 C 1653.67 1137.87 1660.7 1138.88 1665.89 1143.03 C 1671.08 1147.17 1673.6 1153.81 1672.48 1160.36 C 1671.36 1166.91 1666.78 1172.33 1660.5 1174.52 C 1651.17 1177.78 1640.94 1173.02 1637.42 1163.77 C 1633.91 1154.53 1638.39 1144.17 1647.53 1140.4 z M 1659.11 1169.15 C 1672.84 1159.67 1668.54 1145.21 1649.9 1146.05 L 1648.38 1147.23 C 1635.57 1156.7 1643.83 1169.15 1659.11 1169.15 z" fill="rgb(9,39,63)" transform="translate(0,0)"></path>
<path d="M 1649.9 1146.05 C 1668.54 1145.21 1672.84 1159.67 1659.11 1169.15 C 1643.83 1169.15 1635.57 1156.7 1648.38 1147.23 L 1649.9 1146.05 z M 1658.5 1157.56 C 1658.72 1157.32 1659.51 1156.67 1659.62 1156.17 C 1659.13 1156.29 1658.64 1156.4 1658.15 1156.52 C 1657.93 1156.77 1657.26 1157.36 1657.13 1157.83 C 1657.59 1157.74 1658.04 1157.65 1658.5 1157.56 z" fill="rgb(11,168,174)" transform="translate(0,0)"></path>
<path d="M 1658.15 1156.52 C 1658.64 1156.4 1659.13 1156.29 1659.62 1156.17 C 1659.51 1156.67 1658.72 1157.32 1658.5 1157.56 C 1658.04 1157.65 1657.59 1157.74 1657.13 1157.83 C 1657.26 1157.36 1657.93 1156.77 1658.15 1156.52 z" fill="rgb(11,168,174)" fill-opacity="0.282353" transform="translate(0,0)"></path>
<path d="M 408.665 1029.27 C 418.72 1028.41 427.552 1035.9 428.345 1045.96 C 429.137 1056.02 421.586 1064.8 411.52 1065.53 C 401.55 1066.25 392.869 1058.78 392.084 1048.82 C 391.299 1038.85 398.705 1030.12 408.665 1029.27 z" fill="rgb(9,39,63)" transform="translate(0,0)"></path>
<path d="M 407.237 1035.98 C 424.131 1036.1 427.617 1050.9 412.927 1059.52 C 405.376 1059.22 395.744 1055.09 398.164 1046.01 C 399.086 1042.55 401.307 1039.58 404.364 1037.72 C 405.322 1037.14 406.279 1036.56 407.237 1035.98 z" fill="rgb(11,168,174)" transform="translate(0,0)"></path>
<path d="M 547.913 890.527 C 554.379 889.639 560.823 892.291 564.789 897.474 C 568.755 902.656 569.633 909.569 567.086 915.578 C 564.54 921.587 558.963 925.765 552.481 926.52 C 542.601 927.67 533.637 920.651 532.385 910.784 C 531.133 900.916 538.059 891.88 547.913 890.527 z M 554.823 908.553 C 555.108 908.13 555.324 907.965 555.362 907.55 C 555.149 907.326 554.891 907.329 554.528 907.244 C 554.067 907.784 553.665 908.234 553.343 908.829 C 553.701 908.972 554.143 908.744 554.823 908.553 z" fill="rgb(9,39,63)" transform="translate(0,0)"></path>
<path d="M 546.599 897.569 C 552.835 895.608 559.476 899.099 561.396 905.348 C 563.317 911.597 559.784 918.215 553.523 920.095 C 547.318 921.959 540.773 918.464 538.87 912.272 C 536.966 906.079 540.419 899.512 546.599 897.569 z M 554.823 908.553 C 555.108 908.13 555.324 907.965 555.362 907.55 C 555.149 907.326 554.891 907.329 554.528 907.244 C 554.067 907.784 553.665 908.234 553.343 908.829 C 553.701 908.972 554.143 908.744 554.823 908.553 z" fill="rgb(11,168,174)" transform="translate(0,0)"></path>
<path d="M 554.528 907.244 C 554.891 907.329 555.149 907.326 555.362 907.55 C 555.324 907.965 555.108 908.13 554.823 908.553 C 554.143 908.744 553.701 908.972 553.343 908.829 C 553.665 908.234 554.067 907.784 554.528 907.244 z" fill="rgb(11,168,174)" fill-opacity="0.529412" transform="translate(0,0)"></path>
<path d="M 1292.12 275.384 C 1302.03 275.434 1310.06 283.425 1310.16 293.333 C 1310.27 303.241 1302.4 311.397 1292.49 311.651 C 1285.95 311.819 1279.82 308.448 1276.46 302.83 C 1273.1 297.213 1273.03 290.22 1276.27 284.534 C 1279.52 278.848 1285.57 275.351 1292.12 275.384 z" fill="rgb(9,39,63)" transform="translate(0,0)"></path>
<path d="M 1288.35 282.677 C 1292.39 281.385 1296.81 282.415 1299.87 285.36 C 1302.92 288.305 1304.11 292.689 1302.96 296.773 C 1301.82 300.857 1298.52 303.982 1294.38 304.909 C 1288.36 306.257 1282.35 302.63 1280.74 296.678 C 1279.12 290.725 1282.48 284.556 1288.35 282.677 z" fill="rgb(241,108,57)" transform="translate(0,0)"></path>
<path d="M 1467.73 1583.63 C 1473.95 1581.61 1480.78 1583.14 1485.54 1587.63 C 1490.31 1592.12 1492.23 1598.85 1490.57 1605.19 C 1488.91 1611.52 1483.92 1616.43 1477.56 1618 C 1468.22 1620.31 1458.72 1614.81 1456.08 1605.56 C 1453.43 1596.31 1458.58 1586.62 1467.73 1583.63 z" fill="rgb(9,39,63)" transform="translate(0,0)"></path>
<path d="M 1470.85 1589.55 C 1476.95 1588.17 1483.04 1591.91 1484.58 1597.97 C 1486.11 1604.04 1482.52 1610.22 1476.5 1611.9 C 1472.47 1613.03 1468.14 1611.88 1465.2 1608.9 C 1462.25 1605.92 1461.15 1601.58 1462.33 1597.56 C 1463.5 1593.54 1466.77 1590.48 1470.85 1589.55 z" fill="rgb(11,168,174)" transform="translate(0,0)"></path>
<path d="M 1324.95 1176.81 L 1326.38 1177.53 C 1327.4 1178.03 1328.27 1178.48 1329.06 1179.31 C 1326.81 1180.85 1327.19 1182.45 1325.49 1185.09 C 1322.86 1183.2 1320.05 1181.33 1317.51 1179.43 C 1320.34 1179.34 1322.64 1178.4 1324.95 1176.81 z" fill="rgb(12,32,57)" fill-opacity="0.94902" transform="translate(0,0)"></path>
<metadata><recraft-signature>{"signed_by": "recraft", "signature_b64": "2kymLAAznNxPm8M1Gwh+wy5WJzI2Wk/ybPQaqnsWKQF50dzEKpfEhnUJtm6Ys9d9RggaiXZPA9FULjM5m3g5Cw==", "signing_algo": "Ed25519", "generation_timestamp": 1777736813, "identifier": "d5dc28e6-e753-4da6-9ef3-04297b787738"}</recraft-signature></metadata></svg>